<?xml version="1.0" encoding="UTF-8" standalone="no"?>
<!DOCTYPE svg PUBLIC "-//W3C//DTD SVG 1.1//EN" "http://www.w3.org/Graphics/SVG/1.1/DTD/svg11.dtd">
<svg xmlns="http://www.w3.org/2000/svg" version="1.1" viewBox="0.00 0.00 370.00 320.00">
<g stroke-width="2.00" fill="none" stroke-linecap="butt">
<path stroke="#259ae6" vector-effect="non-scaling-stroke" d="
  M 211.76 28.81
  L 182.86 45.60
  Q 182.41 45.86 181.97 45.60
  L 152.81 28.87"
/>
<path stroke="#259ae6" vector-effect="non-scaling-stroke" d="
  M 218.57 32.60
  Q 216.75 34.12 214.59 35.37
  Q 202.14 42.51 189.76 49.67
  Q 189.29 49.94 189.76 50.21
  L 215.02 64.74
  Q 215.46 64.99 215.89 64.74
  Q 229.94 56.48 244.03 48.40
  Q 244.28 48.26 244.37 48.04
  Q 244.50 47.77 244.50 47.56"
/>
<path stroke="#259ae6" vector-effect="non-scaling-stroke" d="
  M 251.89 51.98
  L 223.25 68.48
  A 0.63 0.63 0.0 0 0 223.25 69.57
  L 251.78 86.10"
/>
<path stroke="#85b17e" vector-effect="non-scaling-stroke" d="
  M 251.78 86.10
  Q 252.08 89.40 250.80 90.72"
/>
<path stroke="#869167" vector-effect="non-scaling-stroke" d="
  M 250.80 90.72
  Q 248.19 92.40 245.34 90.20"
/>
<path stroke="#85b17e" vector-effect="non-scaling-stroke" d="
  M 245.34 90.20
  Q 244.92 90.31 244.52 90.24"
/>
<path stroke="#259ae6" vector-effect="non-scaling-stroke" d="
  M 244.52 90.24
  L 215.93 73.33
  A 1.05 1.05 0.0 0 0 214.87 73.33
  L 189.94 87.67
  A 0.47 0.47 0.0 0 0 189.94 88.48
  L 218.59 105.21"
/>
<path stroke="#85b17e" vector-effect="non-scaling-stroke" d="
  M 218.59 105.21
  Q 219.15 107.84 217.98 109.49"
/>
<path stroke="#869167" vector-effect="non-scaling-stroke" d="
  M 217.98 109.49
  Q 215.44 111.71 212.26 109.19"
/>
<path stroke="#259ae6" vector-effect="non-scaling-stroke" d="
  M 212.26 109.19
  L 182.88 92.30
  A 0.95 0.95 0.0 0 0 181.92 92.30
  L 152.91 109.17"
/>
<path stroke="#746278" vector-effect="non-scaling-stroke" d="
  M 152.91 109.17
  C 152.68 105.70 151.98 102.40 147.42 104.18"
/>
<path stroke="#259ae6" vector-effect="non-scaling-stroke" d="
  M 147.42 104.18
  L 174.83 88.27
  A 0.35 0.34 44.5 0 0 174.82 87.67
  L 149.88 73.36
  A 1.05 1.05 0.0 0 0 148.82 73.36
  L 119.91 90.09"
/>
<path stroke="#836e7f" vector-effect="non-scaling-stroke" d="
  M 119.91 90.09
  Q 119.97 90.22 120.02 90.35"
/>
<path stroke="#746278" vector-effect="non-scaling-stroke" d="
  M 120.02 90.35
  C 119.51 87.18 119.92 84.37 115.10 84.63"
/>
<path stroke="#259ae6" vector-effect="non-scaling-stroke" d="
  M 115.10 84.63
  L 141.62 69.31
  Q 142.21 68.97 141.62 68.63
  L 112.89 51.90"
/>
<path stroke="#259ae6" vector-effect="non-scaling-stroke" d="
  M 120.66 47.38
  Q 120.70 47.87 120.77 48.19
  Q 120.86 48.54 121.28 48.78
  Q 135.18 56.76 148.98 64.67
  A 0.94 0.94 0.0 0 0 149.91 64.66
  L 174.78 50.25
  A 0.44 0.43 45.2 0 0 174.78 49.50
  L 146.02 32.77"
/>
<path stroke="#9bc096" vector-effect="non-scaling-stroke" d="
  M 281.47 68.93
  L 251.78 86.10"
/>
<path stroke="#fcb617" vector-effect="non-scaling-stroke" d="
  M 281.46 103.16
  L 252.36 119.87
  A 0.41 0.41 0.0 0 1 251.75 119.51
  Q 251.88 106.01 252.03 92.36
  Q 252.03 91.72 251.80 91.32
  Q 251.37 90.59 250.80 90.72"
/>
<path stroke="#9bc096" vector-effect="non-scaling-stroke" d="
  M 211.88 109.51
  Q 211.33 109.41 211.06 109.56
  Q 196.74 117.90 182.28 126.18"
/>
<path stroke="#997d96" vector-effect="non-scaling-stroke" d="
  M 182.28 126.18
  L 152.91 109.17"
/>
<path stroke="#e84529" vector-effect="non-scaling-stroke" d="
  M 120.02 90.35
  C 119.15 91.13 119.78 92.35 119.78 93.23
  Q 119.68 108.33 119.78 123.56
  Q 119.79 124.14 120.29 124.43
  L 145.20 138.81
  A 0.37 0.37 0.0 0 0 145.75 138.49
  Q 145.76 122.99 145.75 107.25
  C 145.75 106.56 146.09 105.97 146.27 105.32"
/>
<path stroke="#e84529" vector-effect="non-scaling-stroke" d="
  M 152.91 109.17
  Q 152.50 110.32 152.73 110.56
  Q 152.76 126.62 152.75 142.25
  A 1.58 1.56 -75.4 0 0 153.54 143.62
  L 182.24 160.09"
/>
<path stroke="#ea8828" vector-effect="non-scaling-stroke" d="
  M 182.24 160.09
  Q 181.55 158.97 182.92 160.42"
/>
<path stroke="#eb6811" vector-effect="non-scaling-stroke" d="
  M 182.92 160.42
  Q 185.85 161.98 186.19 165.88"
/>
<path stroke="#ea8828" vector-effect="non-scaling-stroke" d="
  M 186.19 165.88
  L 182.26 168.09"
/>
<path stroke="#e84529" vector-effect="non-scaling-stroke" d="
  M 182.26 168.09
  L 153.57 151.55
  A 0.54 0.54 0.0 0 0 152.76 152.02
  L 152.88 180.81
  A 0.93 0.93 0.0 0 0 153.34 181.61
  Q 167.28 189.67 181.08 197.71
  Q 181.14 197.75 181.27 197.86
  Q 181.55 198.11 182.25 197.99"
/>
<path stroke="#ea8828" vector-effect="non-scaling-stroke" d="
  M 182.25 197.99
  Q 182.24 198.10 182.47 198.37"
/>
<path stroke="#eb6811" vector-effect="non-scaling-stroke" d="
  M 182.47 198.37
  Q 185.85 199.85 186.03 204.07"
/>
<path stroke="#ea8828" vector-effect="non-scaling-stroke" d="
  M 186.03 204.07
  L 182.27 206.22"
/>
<path stroke="#e84529" vector-effect="non-scaling-stroke" d="
  M 182.27 206.22
  L 153.27 189.55
  A 0.44 0.44 0.0 0 0 152.61 189.97
  C 153.49 200.99 152.73 212.31 152.73 223.39"
/>
<path stroke="#e84529" vector-effect="non-scaling-stroke" d="
  M 145.97 219.42
  L 145.65 185.84
  Q 145.64 185.24 145.13 184.95
  L 120.37 170.66
  Q 119.81 170.33 119.81 170.98
  L 119.72 204.30"
/>
<path stroke="#e84529" vector-effect="non-scaling-stroke" d="
  M 112.75 200.24
  L 112.74 166.90
  A 1.07 1.06 15.3 0 0 112.21 165.98
  L 83.40 149.50"
/>
<path stroke="#e84529" vector-effect="non-scaling-stroke" d="
  M 83.35 121.24
  L 83.45 140.93
  Q 83.45 141.26 83.73 141.43
  L 112.20 157.90
  Q 112.75 158.22 112.75 157.59
  L 112.75 128.51
  A 0.53 0.52 -75.5 0 0 112.48 128.05
  L 83.44 111.22"
/>
<path stroke="#8a7190" vector-effect="non-scaling-stroke" d="
  M 147.42 104.18
  L 146.27 105.32"
/>
<path stroke="#997d96" vector-effect="non-scaling-stroke" d="
  M 146.27 105.32
  L 119.91 90.09"
/>
<path stroke="#fcb617" vector-effect="non-scaling-stroke" d="
  M 245.34 90.20
  L 244.98 123.64
  Q 244.98 124.16 244.53 124.43
  Q 240.90 126.60 237.20 128.63
  C 231.41 131.79 225.68 135.88 219.34 138.79
  A 0.47 0.46 77.9 0 1 218.69 138.36
  L 218.88 109.67
  Q 218.88 109.29 218.51 109.37
  L 217.98 109.49"
/>
<path stroke="#f9932f" vector-effect="non-scaling-stroke" d="
  M 182.28 126.18
  L 182.24 160.09"
/>
<path stroke="#fcb617" vector-effect="non-scaling-stroke" d="
  M 281.54 111.04
  L 252.19 127.98
  A 0.94 0.93 -15.0 0 0 251.72 128.79
  L 251.83 157.78
  A 0.27 0.27 0.0 0 0 252.23 158.01
  L 281.50 141.39"
/>
<path stroke="#fcb617" vector-effect="non-scaling-stroke" d="
  M 281.58 149.18
  L 252.33 166.07
  Q 251.85 166.35 251.86 166.90
  L 251.97 200.48"
/>
<path stroke="#fcb617" vector-effect="non-scaling-stroke" d="
  M 245.04 204.37
  L 245.00 170.99
  A 0.43 0.43 0.0 0 0 244.36 170.62
  L 219.29 185.04
  Q 218.82 185.32 218.82 185.86
  L 218.99 219.45"
/>
<path stroke="#fcb617" vector-effect="non-scaling-stroke" d="
  M 212.01 223.43
  L 212.00 189.94
  A 0.38 0.38 0.0 0 0 211.43 189.61
  L 186.03 204.07"
/>
<path stroke="#fcb617" vector-effect="non-scaling-stroke" d="
  M 182.47 198.37
  L 211.56 181.51
  A 0.88 0.87 75.3 0 0 212.00 180.75
  L 212.00 152.07
  A 0.53 0.53 0.0 0 0 211.20 151.61
  L 186.19 165.88"
/>
<path stroke="#fcb617" vector-effect="non-scaling-stroke" d="
  M 182.92 160.42
  Q 183.90 159.40 184.86 158.85
  Q 198.05 151.20 211.45 143.47
  Q 211.88 143.22 211.88 142.72
  L 211.88 109.51"
/>
<path stroke="#9ca07f" vector-effect="non-scaling-stroke" d="
  M 211.88 109.51
  L 212.26 109.19"
/>
<path stroke="#9bc096" vector-effect="non-scaling-stroke" d="
  M 244.52 90.24
  L 218.59 105.21"
/>
<path stroke="#8a7190" vector-effect="non-scaling-stroke" d="
  M 115.10 84.63
  Q 114.03 85.82 112.79 86.05"
/>
<path stroke="#997d96" vector-effect="non-scaling-stroke" d="
  M 112.79 86.05
  L 84.50 69.74
  Q 84.09 69.50 83.64 69.65
  L 83.28 69.76"
/>
<path stroke="#f9932f" vector-effect="non-scaling-stroke" d="
  M 182.27 206.22
  L 182.27 240.55"
/>
<path stroke="#f9932f" vector-effect="non-scaling-stroke" d="
  M 182.26 168.09
  L 182.25 197.99"
/>
<path stroke="#e84529" vector-effect="non-scaling-stroke" d="
  M 112.79 86.05
  L 112.73 119.44
  Q 112.73 120.02 112.22 119.73
  L 83.33 103.15"
/>
<path stroke="#259ae6" vector-effect="non-scaling-stroke" d="
  M 207.77 69.31
  A 0.39 0.39 0.0 0 0 207.77 68.63
  L 182.56 54.06
  A 0.39 0.39 0.0 0 0 182.17 54.06
  L 156.90 68.63
  A 0.39 0.39 0.0 0 0 156.90 69.31
  L 182.19 83.89
  A 0.39 0.39 0.0 0 0 182.58 83.89
  L 207.77 69.31"
/>
<path stroke="#e84529" vector-effect="non-scaling-stroke" d="
  M 145.71 176.36
  C 145.91 167.44 146.42 157.06 145.62 147.56
  Q 145.58 147.07 145.16 146.83
  L 120.25 132.47
  A 0.33 0.33 0.0 0 0 119.75 132.76
  L 119.75 161.70
  A 0.90 0.90 0.0 0 0 120.20 162.48
  L 144.98 176.77
  Q 145.69 177.18 145.71 176.36"
/>
<path stroke="#fcb617" vector-effect="non-scaling-stroke" d="
  M 242.39 134.10
  L 219.11 147.11
  A 0.70 0.70 0.0 0 0 218.75 147.72
  L 218.75 176.71
  A 0.38 0.37 -15.3 0 0 219.32 177.03
  L 244.62 162.37
  Q 245.06 162.11 245.06 161.60
  L 244.86 132.90
  Q 244.85 132.41 244.38 132.52
  Q 243.52 132.71 243.07 133.45
  Q 242.82 133.87 242.39 134.10"
/>
</g>
<path fill="#3ba9fd" d="
  M 211.76 28.81
  L 182.86 45.60
  Q 182.41 45.86 181.97 45.60
  L 152.81 28.87
  L 181.86 12.02
  Q 182.33 11.75 182.79 12.02
  L 211.76 28.81
  Z"
/>
<path fill="#0e8bce" d="
  M 152.81 28.87
  L 181.97 45.60
  Q 182.41 45.86 182.86 45.60
  L 211.76 28.81
  Q 219.15 24.93 218.57 32.60
  Q 216.75 34.12 214.59 35.37
  Q 202.14 42.51 189.76 49.67
  Q 189.29 49.94 189.76 50.21
  L 215.02 64.74
  Q 215.46 64.99 215.89 64.74
  Q 229.94 56.48 244.03 48.40
  Q 244.28 48.26 244.37 48.04
  Q 244.50 47.77 244.50 47.56
  Q 245.02 47.83 245.80 47.35
  Q 249.29 45.16 251.45 48.30
  Q 251.73 48.70 251.75 49.18
  L 251.89 51.98
  L 223.25 68.48
  A 0.63 0.63 0.0 0 0 223.25 69.57
  L 251.78 86.10
  Q 252.08 89.40 250.80 90.72
  Q 248.19 92.40 245.34 90.20
  Q 244.92 90.31 244.52 90.24
  L 215.93 73.33
  A 1.05 1.05 0.0 0 0 214.87 73.33
  L 189.94 87.67
  A 0.47 0.47 0.0 0 0 189.94 88.48
  L 218.59 105.21
  Q 219.15 107.84 217.98 109.49
  Q 215.44 111.71 212.26 109.19
  L 182.88 92.30
  A 0.95 0.95 0.0 0 0 181.92 92.30
  L 152.91 109.17
  C 152.68 105.70 151.98 102.40 147.42 104.18
  L 174.83 88.27
  A 0.35 0.34 44.5 0 0 174.82 87.67
  L 149.88 73.36
  A 1.05 1.05 0.0 0 0 148.82 73.36
  L 119.91 90.09
  Q 119.97 90.22 120.02 90.35
  C 119.51 87.18 119.92 84.37 115.10 84.63
  L 141.62 69.31
  Q 142.21 68.97 141.62 68.63
  L 112.89 51.90
  C 112.30 47.88 115.05 44.83 118.92 47.45
  Q 119.42 47.79 119.76 47.76
  Q 120.25 47.73 120.66 47.38
  Q 120.70 47.87 120.77 48.19
  Q 120.86 48.54 121.28 48.78
  Q 135.18 56.76 148.98 64.67
  A 0.94 0.94 0.0 0 0 149.91 64.66
  L 174.78 50.25
  A 0.44 0.43 45.2 0 0 174.78 49.50
  L 146.02 32.77
  Q 145.58 29.86 146.76 28.53
  Q 148.93 26.07 152.81 28.87
  Z
  M 207.77 69.31
  A 0.39 0.39 0.0 0 0 207.77 68.63
  L 182.56 54.06
  A 0.39 0.39 0.0 0 0 182.17 54.06
  L 156.90 68.63
  A 0.39 0.39 0.0 0 0 156.90 69.31
  L 182.19 83.89
  A 0.39 0.39 0.0 0 0 182.58 83.89
  L 207.77 69.31
  Z"
/>
<path fill="#3ba9fd" d="
  M 218.57 32.60
  L 244.50 47.56
  Q 244.50 47.77 244.37 48.04
  Q 244.28 48.26 244.03 48.40
  Q 229.94 56.48 215.89 64.74
  Q 215.46 64.99 215.02 64.74
  L 189.76 50.21
  Q 189.29 49.94 189.76 49.67
  Q 202.14 42.51 214.59 35.37
  Q 216.75 34.12 218.57 32.60
  Z"
/>
<path fill="#3ba9fd" d="
  M 146.02 32.77
  L 174.78 49.50
  A 0.44 0.43 45.2 0 1 174.78 50.25
  L 149.91 64.66
  A 0.94 0.94 0.0 0 1 148.98 64.67
  Q 135.18 56.76 121.28 48.78
  Q 120.86 48.54 120.77 48.19
  Q 120.70 47.87 120.66 47.38
  L 146.02 32.77
  Z"
/>
<path fill="#3ba9fd" d="
  M 112.89 51.90
  L 141.62 68.63
  Q 142.21 68.97 141.62 69.31
  L 115.10 84.63
  Q 114.03 85.82 112.79 86.05
  L 84.50 69.74
  Q 84.09 69.50 83.64 69.65
  L 83.28 69.76
  Q 83.27 69.46 83.41 69.11
  Q 83.53 68.83 83.85 68.64
  Q 98.37 60.09 112.89 51.90
  Z"
/>
<path fill="#3ba9fd" d="
  M 251.89 51.98
  L 281.47 68.93
  L 251.78 86.10
  L 223.25 69.57
  A 0.63 0.63 0.0 0 1 223.25 68.48
  L 251.89 51.98
  Z"
/>
<path fill="#3ba9fd" d="
  M 207.77 69.31
  L 182.58 83.89
  A 0.39 0.39 0.0 0 1 182.19 83.89
  L 156.90 69.31
  A 0.39 0.39 0.0 0 1 156.90 68.63
  L 182.17 54.06
  A 0.39 0.39 0.0 0 1 182.56 54.06
  L 207.77 68.63
  A 0.39 0.39 0.0 0 1 207.77 69.31
  Z"
/>
<path fill="#fbd62e" d="
  M 281.47 68.93
  L 281.46 103.16
  L 252.36 119.87
  A 0.41 0.41 0.0 0 1 251.75 119.51
  Q 251.88 106.01 252.03 92.36
  Q 252.03 91.72 251.80 91.32
  Q 251.37 90.59 250.80 90.72
  Q 252.08 89.40 251.78 86.10
  L 281.47 68.93
  Z"
/>
<path fill="#f7502f" d="
  M 112.79 86.05
  L 112.73 119.44
  Q 112.73 120.02 112.22 119.73
  L 83.33 103.15
  L 83.28 69.76
  L 83.64 69.65
  Q 84.09 69.50 84.50 69.74
  L 112.79 86.05
  Z"
/>
<path fill="#3ba9fd" d="
  M 147.42 104.18
  L 146.27 105.32
  L 119.91 90.09
  L 148.82 73.36
  A 1.05 1.05 0.0 0 1 149.88 73.36
  L 174.82 87.67
  A 0.35 0.34 44.5 0 1 174.83 88.27
  L 147.42 104.18
  Z"
/>
<path fill="#3ba9fd" d="
  M 244.52 90.24
  L 218.59 105.21
  L 189.94 88.48
  A 0.47 0.47 0.0 0 1 189.94 87.67
  L 214.87 73.33
  A 1.05 1.05 0.0 0 1 215.93 73.33
  L 244.52 90.24
  Z"
/>
<path fill="#d93922" d="
  M 115.10 84.63
  C 119.92 84.37 119.51 87.18 120.02 90.35
  C 119.15 91.13 119.78 92.35 119.78 93.23
  Q 119.68 108.33 119.78 123.56
  Q 119.79 124.14 120.29 124.43
  L 145.20 138.81
  A 0.37 0.37 0.0 0 0 145.75 138.49
  Q 145.76 122.99 145.75 107.25
  C 145.75 106.56 146.09 105.97 146.27 105.32
  L 147.42 104.18
  C 151.98 102.40 152.68 105.70 152.91 109.17
  Q 152.50 110.32 152.73 110.56
  Q 152.76 126.62 152.75 142.25
  A 1.58 1.56 -75.4 0 0 153.54 143.62
  L 182.24 160.09
  Q 181.55 158.97 182.92 160.42
  Q 185.85 161.98 186.19 165.88
  L 182.26 168.09
  L 153.57 151.55
  A 0.54 0.54 0.0 0 0 152.76 152.02
  L 152.88 180.81
  A 0.93 0.93 0.0 0 0 153.34 181.61
  Q 167.28 189.67 181.08 197.71
  Q 181.14 197.75 181.27 197.86
  Q 181.55 198.11 182.25 197.99
  Q 182.24 198.10 182.47 198.37
  Q 185.85 199.85 186.03 204.07
  L 182.27 206.22
  L 153.27 189.55
  A 0.44 0.44 0.0 0 0 152.61 189.97
  C 153.49 200.99 152.73 212.31 152.73 223.39
  C 147.80 227.13 146.15 223.73 145.97 219.42
  L 145.65 185.84
  Q 145.64 185.24 145.13 184.95
  L 120.37 170.66
  Q 119.81 170.33 119.81 170.98
  L 119.72 204.30
  Q 112.89 208.74 112.75 200.24
  L 112.74 166.90
  A 1.07 1.06 15.3 0 0 112.21 165.98
  L 83.40 149.50
  Q 78.65 147.13 80.42 143.34
  Q 80.67 142.80 81.21 142.53
  L 82.75 141.75
  A 0.97 0.95 77.2 0 0 83.27 140.91
  L 83.35 121.24
  L 83.45 140.93
  Q 83.45 141.26 83.73 141.43
  L 112.20 157.90
  Q 112.75 158.22 112.75 157.59
  L 112.75 128.51
  A 0.53 0.52 -75.5 0 0 112.48 128.05
  L 83.44 111.22
  Q 78.34 108.94 80.58 104.89
  A 1.40 1.32 -1.7 0 1 81.14 104.33
  L 83.33 103.15
  L 112.22 119.73
  Q 112.73 120.02 112.73 119.44
  L 112.79 86.05
  Q 114.03 85.82 115.10 84.63
  Z
  M 145.71 176.36
  C 145.91 167.44 146.42 157.06 145.62 147.56
  Q 145.58 147.07 145.16 146.83
  L 120.25 132.47
  A 0.33 0.33 0.0 0 0 119.75 132.76
  L 119.75 161.70
  A 0.90 0.90 0.0 0 0 120.20 162.48
  L 144.98 176.77
  Q 145.69 177.18 145.71 176.36
  Z"
/>
<path fill="#f7502f" d="
  M 120.02 90.35
  Q 119.97 90.22 119.91 90.09
  L 146.27 105.32
  C 146.09 105.97 145.75 106.56 145.75 107.25
  Q 145.76 122.99 145.75 138.49
  A 0.37 0.37 0.0 0 1 145.20 138.81
  L 120.29 124.43
  Q 119.79 124.14 119.78 123.56
  Q 119.68 108.33 119.78 93.23
  C 119.78 92.35 119.15 91.13 120.02 90.35
  Z"
/>
<path fill="#fbd62e" d="
  M 244.52 90.24
  Q 244.92 90.31 245.34 90.20
  L 244.98 123.64
  Q 244.98 124.16 244.53 124.43
  Q 240.90 126.60 237.20 128.63
  C 231.41 131.79 225.68 135.88 219.34 138.79
  A 0.47 0.46 77.9 0 1 218.69 138.36
  L 218.88 109.67
  Q 218.88 109.29 218.51 109.37
  L 217.98 109.49
  Q 219.15 107.84 218.59 105.21
  L 244.52 90.24
  Z"
/>
<path fill="#fd9600" d="
  M 245.34 90.20
  Q 248.19 92.40 250.80 90.72
  Q 251.37 90.59 251.80 91.32
  Q 252.03 91.72 252.03 92.36
  Q 251.88 106.01 251.75 119.51
  A 0.41 0.41 0.0 0 0 252.36 119.87
  L 281.46 103.16
  Q 288.44 107.13 281.54 111.04
  L 252.19 127.98
  A 0.94 0.93 -15.0 0 0 251.72 128.79
  L 251.83 157.78
  A 0.27 0.27 0.0 0 0 252.23 158.01
  L 281.50 141.39
  Q 288.37 145.01 281.58 149.18
  L 252.33 166.07
  Q 251.85 166.35 251.86 166.90
  L 251.97 200.48
  C 252.38 205.34 248.89 207.31 245.04 204.37
  L 245.00 170.99
  A 0.43 0.43 0.0 0 0 244.36 170.62
  L 219.29 185.04
  Q 218.82 185.32 218.82 185.86
  L 218.99 219.45
  C 218.41 222.18 218.82 225.03 214.97 225.04
  A 1.33 1.31 -28.7 0 1 214.27 224.84
  L 212.01 223.43
  L 212.00 189.94
  A 0.38 0.38 0.0 0 0 211.43 189.61
  L 186.03 204.07
  Q 185.85 199.85 182.47 198.37
  L 211.56 181.51
  A 0.88 0.87 75.3 0 0 212.00 180.75
  L 212.00 152.07
  A 0.53 0.53 0.0 0 0 211.20 151.61
  L 186.19 165.88
  Q 185.85 161.98 182.92 160.42
  Q 183.90 159.40 184.86 158.85
  Q 198.05 151.20 211.45 143.47
  Q 211.88 143.22 211.88 142.72
  L 211.88 109.51
  L 212.26 109.19
  Q 215.44 111.71 217.98 109.49
  L 218.51 109.37
  Q 218.88 109.29 218.88 109.67
  L 218.69 138.36
  A 0.47 0.46 77.9 0 0 219.34 138.79
  C 225.68 135.88 231.41 131.79 237.20 128.63
  Q 240.90 126.60 244.53 124.43
  Q 244.98 124.16 244.98 123.64
  L 245.34 90.20
  Z
  M 242.39 134.10
  L 219.11 147.11
  A 0.70 0.70 0.0 0 0 218.75 147.72
  L 218.75 176.71
  A 0.38 0.37 -15.3 0 0 219.32 177.03
  L 244.62 162.37
  Q 245.06 162.11 245.06 161.60
  L 244.86 132.90
  Q 244.85 132.41 244.38 132.52
  Q 243.52 132.71 243.07 133.45
  Q 242.82 133.87 242.39 134.10
  Z"
/>
<path fill="#3ba9fd" d="
  M 212.26 109.19
  L 211.88 109.51
  Q 211.33 109.41 211.06 109.56
  Q 196.74 117.90 182.28 126.18
  L 152.91 109.17
  L 181.92 92.30
  A 0.95 0.95 0.0 0 1 182.88 92.30
  L 212.26 109.19
  Z"
/>
<path fill="#f7502f" d="
  M 152.91 109.17
  L 182.28 126.18
  L 182.24 160.09
  L 153.54 143.62
  A 1.58 1.56 -75.4 0 1 152.75 142.25
  Q 152.76 126.62 152.73 110.56
  Q 152.50 110.32 152.91 109.17
  Z"
/>
<path fill="#fbd62e" d="
  M 211.88 109.51
  L 211.88 142.72
  Q 211.88 143.22 211.45 143.47
  Q 198.05 151.20 184.86 158.85
  Q 183.90 159.40 182.92 160.42
  Q 181.55 158.97 182.24 160.09
  L 182.28 126.18
  Q 196.74 117.90 211.06 109.56
  Q 211.33 109.41 211.88 109.51
  Z"
/>
<path fill="#fbd62e" d="
  M 281.54 111.04
  L 281.50 141.39
  L 252.23 158.01
  A 0.27 0.27 0.0 0 1 251.83 157.78
  L 251.72 128.79
  A 0.94 0.93 -15.0 0 1 252.19 127.98
  L 281.54 111.04
  Z"
/>
<path fill="#f7502f" d="
  M 83.44 111.22
  L 112.48 128.05
  A 0.53 0.52 -75.5 0 1 112.75 128.51
  L 112.75 157.59
  Q 112.75 158.22 112.20 157.90
  L 83.73 141.43
  Q 83.45 141.26 83.45 140.93
  L 83.35 121.24
  L 83.44 111.22
  Z"
/>
<path fill="#f7502f" d="
  M 145.62 147.56
  C 146.42 157.06 145.91 167.44 145.71 176.36
  Q 145.69 177.18 144.98 176.77
  L 120.20 162.48
  A 0.90 0.90 0.0 0 1 119.75 161.70
  L 119.75 132.76
  A 0.33 0.33 0.0 0 1 120.25 132.47
  L 145.16 146.83
  Q 145.58 147.07 145.62 147.56
  Z"
/>
<path fill="#fbd62e" d="
  M 243.07 133.45
  Q 243.52 132.71 244.38 132.52
  Q 244.85 132.41 244.86 132.90
  L 245.06 161.60
  Q 245.06 162.11 244.62 162.37
  L 219.32 177.03
  A 0.38 0.37 -15.3 0 1 218.75 176.71
  L 218.75 147.72
  A 0.70 0.70 0.0 0 1 219.11 147.11
  L 242.39 134.10
  Q 242.82 133.87 243.07 133.45
  Z"
/>
<path fill="#fbd62e" d="
  M 281.58 149.18
  L 281.54 182.48
  A 1.54 1.52 75.0 0 1 280.79 183.80
  L 251.97 200.48
  L 251.86 166.90
  Q 251.85 166.35 252.33 166.07
  L 281.58 149.18
  Z"
/>
<path fill="#f7502f" d="
  M 112.75 200.24
  L 83.85 183.56
  Q 83.37 183.28 83.37 182.72
  L 83.40 149.50
  L 112.21 165.98
  A 1.07 1.06 15.3 0 1 112.74 166.90
  L 112.75 200.24
  Z"
/>
<path fill="#f7502f" d="
  M 182.26 168.09
  L 182.25 197.99
  Q 181.55 198.11 181.27 197.86
  Q 181.14 197.75 181.08 197.71
  Q 167.28 189.67 153.34 181.61
  A 0.93 0.93 0.0 0 1 152.88 180.81
  L 152.76 152.02
  A 0.54 0.54 0.0 0 1 153.57 151.55
  L 182.26 168.09
  Z"
/>
<path fill="#fbd62e" d="
  M 182.47 198.37
  Q 182.24 198.10 182.25 197.99
  L 182.26 168.09
  L 186.19 165.88
  L 211.20 151.61
  A 0.53 0.53 0.0 0 1 212.00 152.07
  L 212.00 180.75
  A 0.88 0.87 75.3 0 1 211.56 181.51
  L 182.47 198.37
  Z"
/>
<path fill="#f7502f" d="
  M 145.97 219.42
  L 119.72 204.30
  L 119.81 170.98
  Q 119.81 170.33 120.37 170.66
  L 145.13 184.95
  Q 145.64 185.24 145.65 185.84
  L 145.97 219.42
  Z"
/>
<path fill="#fbd62e" d="
  M 245.04 204.37
  L 218.99 219.45
  L 218.82 185.86
  Q 218.82 185.32 219.29 185.04
  L 244.36 170.62
  A 0.43 0.43 0.0 0 1 245.00 170.99
  L 245.04 204.37
  Z"
/>
<path fill="#f7502f" d="
  M 182.27 206.22
  L 182.27 240.55
  L 152.73 223.39
  C 152.73 212.31 153.49 200.99 152.61 189.97
  A 0.44 0.44 0.0 0 1 153.27 189.55
  L 182.27 206.22
  Z"
/>
<path fill="#fbd62e" d="
  M 212.01 223.43
  L 182.27 240.55
  L 182.27 206.22
  L 186.03 204.07
  L 211.43 189.61
  A 0.38 0.38 0.0 0 1 212.00 189.94
  L 212.01 223.43
  Z"
/>
<path fill="#86b19d" d="
  M 44.07 276.28
  C 47.44 279.47 55.03 285.76 56.08 290.22
  C 57.84 297.73 48.24 303.04 42.96 297.80
  Q 35.76 290.65 28.60 283.48
  C 24.22 279.09 22.38 274.74 27.10 269.87
  Q 39.34 257.23 43.23 253.71
  C 48.88 248.62 58.21 254.44 55.97 261.92
  C 54.66 266.29 47.39 272.24 44.06 275.51
  Q 43.66 275.90 44.07 276.28
  Z
  M 38.53 275.39
  Q 44.62 269.16 50.84 263.05
  C 55.02 258.95 49.87 252.76 44.54 258.08
  Q 36.79 265.83 29.51 273.12
  A 3.91 3.91 0.0 0 0 29.51 278.64
  Q 37.15 286.28 45.11 294.22
  C 48.12 297.22 52.95 295.45 52.26 291.37
  C 51.73 288.23 41.20 279.13 38.52 276.26
  Q 38.11 275.82 38.53 275.39
  Z"
/>
<path fill="#86b19d" d="
  M 70.71 254.22
  C 77.12 248.22 87.21 254.92 83.71 262.87
  C 81.93 266.89 75.58 272.03 72.18 275.45
  Q 71.79 275.85 72.18 276.25
  C 75.49 279.70 82.19 285.01 83.79 289.11
  C 86.99 297.26 76.67 303.36 70.48 297.28
  Q 57.76 284.80 54.70 281.54
  C 51.00 277.59 52.02 273.06 55.65 269.31
  Q 65.98 258.64 70.71 254.22
  Z
  M 66.53 275.39
  Q 72.51 269.28 78.60 263.27
  C 83.23 258.71 77.75 252.91 72.71 257.93
  Q 64.85 265.75 57.49 273.15
  A 3.87 3.87 0.0 0 0 57.49 278.61
  Q 65.19 286.34 72.98 294.09
  C 76.23 297.32 81.55 295.08 80.35 291.08
  C 79.33 287.70 69.41 279.37 66.52 276.26
  Q 66.11 275.82 66.53 275.39
  Z"
/>
<path fill="#86b19d" d="
  M 298.43 275.66
  C 295.08 272.19 287.41 265.99 286.30 261.65
  C 284.92 256.29 290.70 250.83 295.94 252.30
  C 300.94 253.70 310.09 264.72 314.07 268.71
  C 318.49 273.16 319.79 277.33 315.17 282.09
  C 311.10 286.28 301.23 298.10 296.13 299.68
  C 290.79 301.33 284.89 295.78 286.30 290.40
  C 287.48 285.93 294.94 279.98 298.42 276.42
  Q 298.80 276.04 298.43 275.66
  Z
  M 296.16 295.39
  C 301.75 290.35 307.82 284.58 312.76 278.84
  C 314.28 277.07 314.58 275.01 312.93 273.32
  Q 309.57 269.87 297.30 257.71
  C 292.92 253.36 287.66 259.32 291.45 263.08
  Q 297.70 269.27 304.01 275.66
  Q 304.39 276.04 304.00 276.42
  Q 297.81 282.53 291.78 288.79
  C 288.27 292.43 290.70 295.92 295.29 295.74
  Q 295.79 295.72 296.16 295.39
  Z"
/>
<path fill="#86b19d" d="
  M 328.31 255.19
  Q 335.07 261.93 341.83 268.69
  C 346.30 273.15 347.84 277.24 343.13 282.12
  Q 335.84 289.69 328.33 297.08
  C 322.34 302.99 312.04 298.46 314.48 289.86
  C 315.61 285.84 323.24 279.64 326.35 276.52
  A 0.63 0.62 -45.7 0 0 326.35 275.64
  C 323.08 272.46 316.52 267.14 314.80 263.14
  C 311.14 254.60 321.62 248.51 328.31 255.19
  Z
  M 331.93 276.40
  Q 326.07 282.40 320.08 288.29
  C 315.20 293.07 321.40 298.22 324.56 295.07
  Q 333.07 286.58 340.88 278.74
  A 3.89 3.89 0.0 0 0 340.87 273.25
  Q 333.49 265.86 325.83 258.20
  C 320.67 253.04 315.92 259.65 318.91 262.58
  Q 325.51 269.02 331.93 275.61
  Q 332.32 276.00 331.93 276.40
  Z"
/>
</svg>
