<?xml version="1.0" encoding="UTF-8"?>
<svg xmlns="http://www.w3.org/2000/svg" xmlns:xlink="http://www.w3.org/1999/xlink" width="369px" height="320px" viewBox="0 0 370 320" version="1.1">
<g id="surface1">
<path style="fill:none;stroke-width:2;stroke-linecap:butt;stroke-linejoin:miter;stroke:rgb(14.509804%,60.392157%,90.196078%);stroke-opacity:1;stroke-miterlimit:4;" d="M 211.761719 28.808594 L 182.859375 45.601562 C 182.558594 45.773438 182.261719 45.773438 181.96875 45.601562 L 152.808594 28.871094 "/>
<path style="fill:none;stroke-width:2;stroke-linecap:butt;stroke-linejoin:miter;stroke:rgb(14.509804%,60.392157%,90.196078%);stroke-opacity:1;stroke-miterlimit:4;" d="M 218.570312 32.601562 C 217.355469 33.613281 216.03125 34.535156 214.589844 35.371094 C 206.289062 40.128906 198.011719 44.898438 189.761719 49.671875 C 189.445312 49.851562 189.445312 50.03125 189.761719 50.210938 L 215.019531 64.738281 C 215.3125 64.90625 215.601562 64.90625 215.890625 64.738281 C 225.257812 59.234375 234.636719 53.785156 244.03125 48.398438 C 244.195312 48.308594 244.308594 48.1875 244.371094 48.039062 C 244.457031 47.859375 244.5 47.699219 244.5 47.558594 "/>
<path style="fill:none;stroke-width:2;stroke-linecap:butt;stroke-linejoin:miter;stroke:rgb(14.509804%,60.392157%,90.196078%);stroke-opacity:1;stroke-miterlimit:4;" d="M 251.890625 51.980469 L 223.25 68.480469 C 223.054688 68.59375 222.9375 68.800781 222.9375 69.023438 C 222.9375 69.25 223.054688 69.457031 223.25 69.570312 L 251.78125 86.101562 "/>
<path style="fill:none;stroke-width:2;stroke-linecap:butt;stroke-linejoin:miter;stroke:rgb(52.156863%,69.411765%,49.411765%);stroke-opacity:1;stroke-miterlimit:4;" d="M 251.78125 86.101562 C 251.980469 88.300781 251.652344 89.839844 250.800781 90.71875 "/>
<path style="fill:none;stroke-width:2;stroke-linecap:butt;stroke-linejoin:miter;stroke:rgb(52.54902%,56.862745%,40.392157%);stroke-opacity:1;stroke-miterlimit:4;" d="M 250.800781 90.71875 C 249.058594 91.839844 247.238281 91.667969 245.339844 90.199219 "/>
<path style="fill:none;stroke-width:2;stroke-linecap:butt;stroke-linejoin:miter;stroke:rgb(52.156863%,69.411765%,49.411765%);stroke-opacity:1;stroke-miterlimit:4;" d="M 245.339844 90.199219 C 245.058594 90.273438 244.785156 90.285156 244.519531 90.238281 "/>
<path style="fill:none;stroke-width:2;stroke-linecap:butt;stroke-linejoin:miter;stroke:rgb(14.509804%,60.392157%,90.196078%);stroke-opacity:1;stroke-miterlimit:4;" d="M 244.519531 90.238281 L 215.929688 73.328125 C 215.601562 73.136719 215.199219 73.136719 214.871094 73.328125 L 189.941406 87.671875 C 189.796875 87.753906 189.707031 87.910156 189.707031 88.074219 C 189.707031 88.242188 189.796875 88.394531 189.941406 88.480469 L 218.589844 105.210938 "/>
<path style="fill:none;stroke-width:2;stroke-linecap:butt;stroke-linejoin:miter;stroke:rgb(52.156863%,69.411765%,49.411765%);stroke-opacity:1;stroke-miterlimit:4;" d="M 218.589844 105.210938 C 218.964844 106.964844 218.761719 108.390625 217.980469 109.488281 "/>
<path style="fill:none;stroke-width:2;stroke-linecap:butt;stroke-linejoin:miter;stroke:rgb(52.54902%,56.862745%,40.392157%);stroke-opacity:1;stroke-miterlimit:4;" d="M 217.980469 109.488281 C 216.285156 110.96875 214.378906 110.871094 212.261719 109.191406 "/>
<path style="fill:none;stroke-width:2;stroke-linecap:butt;stroke-linejoin:miter;stroke:rgb(14.509804%,60.392157%,90.196078%);stroke-opacity:1;stroke-miterlimit:4;" d="M 212.261719 109.191406 L 182.878906 92.300781 C 182.582031 92.125 182.214844 92.125 181.921875 92.300781 L 152.910156 109.171875 "/>
<path style="fill:none;stroke-width:2;stroke-linecap:butt;stroke-linejoin:miter;stroke:rgb(45.490196%,38.431373%,47.058824%);stroke-opacity:1;stroke-miterlimit:4;" d="M 152.910156 109.171875 C 152.679688 105.699219 151.980469 102.398438 147.421875 104.179688 "/>
<path style="fill:none;stroke-width:2;stroke-linecap:butt;stroke-linejoin:miter;stroke:rgb(14.509804%,60.392157%,90.196078%);stroke-opacity:1;stroke-miterlimit:4;" d="M 147.421875 104.179688 L 174.828125 88.269531 C 174.9375 88.210938 175 88.097656 175 87.972656 C 174.996094 87.847656 174.929688 87.734375 174.820312 87.671875 L 149.878906 73.359375 C 149.550781 73.167969 149.148438 73.167969 148.820312 73.359375 L 119.910156 90.089844 "/>
<path style="fill:none;stroke-width:2;stroke-linecap:butt;stroke-linejoin:miter;stroke:rgb(51.372549%,43.137255%,49.803922%);stroke-opacity:1;stroke-miterlimit:4;" d="M 119.910156 90.089844 C 119.949219 90.175781 119.988281 90.261719 120.019531 90.351562 "/>
<path style="fill:none;stroke-width:2;stroke-linecap:butt;stroke-linejoin:miter;stroke:rgb(45.490196%,38.431373%,47.058824%);stroke-opacity:1;stroke-miterlimit:4;" d="M 120.019531 90.351562 C 119.511719 87.179688 119.921875 84.371094 115.101562 84.628906 "/>
<path style="fill:none;stroke-width:2;stroke-linecap:butt;stroke-linejoin:miter;stroke:rgb(14.509804%,60.392157%,90.196078%);stroke-opacity:1;stroke-miterlimit:4;" d="M 115.101562 84.628906 L 141.621094 69.308594 C 142.011719 69.082031 142.011719 68.855469 141.621094 68.628906 L 112.890625 51.898438 "/>
<path style="fill:none;stroke-width:2;stroke-linecap:butt;stroke-linejoin:miter;stroke:rgb(14.509804%,60.392157%,90.196078%);stroke-opacity:1;stroke-miterlimit:4;" d="M 120.660156 47.378906 C 120.6875 47.707031 120.722656 47.976562 120.769531 48.191406 C 120.828125 48.421875 121 48.621094 121.28125 48.78125 C 130.546875 54.101562 139.78125 59.398438 148.980469 64.671875 C 149.269531 64.832031 149.625 64.828125 149.910156 64.660156 L 174.78125 50.25 C 174.914062 50.175781 174.996094 50.035156 174.996094 49.878906 C 174.996094 49.726562 174.914062 49.582031 174.78125 49.5 L 146.019531 32.769531 "/>
<path style="fill:none;stroke-width:2;stroke-linecap:butt;stroke-linejoin:miter;stroke:rgb(60.784314%,75.294118%,58.823529%);stroke-opacity:1;stroke-miterlimit:4;" d="M 281.46875 68.929688 L 251.78125 86.101562 "/>
<path style="fill:none;stroke-width:2;stroke-linecap:butt;stroke-linejoin:miter;stroke:rgb(98.823529%,71.372549%,9.019608%);stroke-opacity:1;stroke-miterlimit:4;" d="M 281.460938 103.160156 L 252.359375 119.871094 C 252.234375 119.941406 252.078125 119.9375 251.953125 119.863281 C 251.824219 119.792969 251.75 119.65625 251.75 119.511719 C 251.835938 110.511719 251.929688 101.460938 252.03125 92.359375 C 252.03125 91.933594 251.953125 91.585938 251.800781 91.320312 C 251.511719 90.832031 251.179688 90.632812 250.800781 90.71875 "/>
<path style="fill:none;stroke-width:2;stroke-linecap:butt;stroke-linejoin:miter;stroke:rgb(60.784314%,75.294118%,58.823529%);stroke-opacity:1;stroke-miterlimit:4;" d="M 211.878906 109.511719 C 211.511719 109.441406 211.238281 109.460938 211.058594 109.558594 C 201.511719 115.121094 191.921875 120.660156 182.28125 126.179688 "/>
<path style="fill:none;stroke-width:2;stroke-linecap:butt;stroke-linejoin:miter;stroke:rgb(60%,49.019608%,58.823529%);stroke-opacity:1;stroke-miterlimit:4;" d="M 182.28125 126.179688 L 152.910156 109.171875 "/>
<path style="fill:none;stroke-width:2;stroke-linecap:butt;stroke-linejoin:miter;stroke:rgb(90.980392%,27.058824%,16.078431%);stroke-opacity:1;stroke-miterlimit:4;" d="M 120.019531 90.351562 C 119.148438 91.128906 119.78125 92.351562 119.78125 93.230469 C 119.714844 103.296875 119.714844 113.40625 119.78125 123.558594 C 119.785156 123.945312 119.957031 124.238281 120.289062 124.429688 L 145.199219 138.808594 C 145.3125 138.875 145.453125 138.871094 145.566406 138.804688 C 145.679688 138.742188 145.75 138.621094 145.75 138.488281 C 145.757812 128.15625 145.757812 117.742188 145.75 107.25 C 145.75 106.558594 146.089844 105.96875 146.269531 105.320312 "/>
<path style="fill:none;stroke-width:2;stroke-linecap:butt;stroke-linejoin:miter;stroke:rgb(90.980392%,27.058824%,16.078431%);stroke-opacity:1;stroke-miterlimit:4;" d="M 152.910156 109.171875 C 152.636719 109.9375 152.578125 110.398438 152.730469 110.558594 C 152.75 121.265625 152.757812 131.828125 152.75 142.25 C 152.75 142.820312 153.050781 143.34375 153.539062 143.621094 L 182.238281 160.089844 "/>
<path style="fill:none;stroke-width:2;stroke-linecap:butt;stroke-linejoin:miter;stroke:rgb(91.764706%,53.333333%,15.686275%);stroke-opacity:1;stroke-miterlimit:4;" d="M 182.238281 160.089844 C 181.78125 159.34375 182.007812 159.453125 182.921875 160.421875 "/>
<path style="fill:none;stroke-width:2;stroke-linecap:butt;stroke-linejoin:miter;stroke:rgb(92.156863%,40.784314%,6.666667%);stroke-opacity:1;stroke-miterlimit:4;" d="M 182.921875 160.421875 C 184.875 161.460938 185.964844 163.28125 186.191406 165.878906 "/>
<path style="fill:none;stroke-width:2;stroke-linecap:butt;stroke-linejoin:miter;stroke:rgb(91.764706%,53.333333%,15.686275%);stroke-opacity:1;stroke-miterlimit:4;" d="M 186.191406 165.878906 L 182.261719 168.089844 "/>
<path style="fill:none;stroke-width:2;stroke-linecap:butt;stroke-linejoin:miter;stroke:rgb(90.980392%,27.058824%,16.078431%);stroke-opacity:1;stroke-miterlimit:4;" d="M 182.261719 168.089844 L 153.570312 151.550781 C 153.402344 151.453125 153.195312 151.453125 153.027344 151.550781 C 152.863281 151.648438 152.757812 151.828125 152.761719 152.019531 L 152.878906 180.808594 C 152.882812 181.140625 153.054688 181.445312 153.339844 181.609375 C 162.632812 186.984375 171.878906 192.351562 181.078125 197.710938 C 181.121094 197.738281 181.183594 197.785156 181.269531 197.859375 C 181.457031 198.027344 181.785156 198.070312 182.25 197.988281 "/>
<path style="fill:none;stroke-width:2;stroke-linecap:butt;stroke-linejoin:miter;stroke:rgb(91.764706%,53.333333%,15.686275%);stroke-opacity:1;stroke-miterlimit:4;" d="M 182.25 197.988281 C 182.242188 198.0625 182.316406 198.191406 182.46875 198.371094 "/>
<path style="fill:none;stroke-width:2;stroke-linecap:butt;stroke-linejoin:miter;stroke:rgb(92.156863%,40.784314%,6.666667%);stroke-opacity:1;stroke-miterlimit:4;" d="M 182.46875 198.371094 C 184.722656 199.355469 185.910156 201.257812 186.03125 204.070312 "/>
<path style="fill:none;stroke-width:2;stroke-linecap:butt;stroke-linejoin:miter;stroke:rgb(91.764706%,53.333333%,15.686275%);stroke-opacity:1;stroke-miterlimit:4;" d="M 186.03125 204.070312 L 182.269531 206.21875 "/>
<path style="fill:none;stroke-width:2;stroke-linecap:butt;stroke-linejoin:miter;stroke:rgb(90.980392%,27.058824%,16.078431%);stroke-opacity:1;stroke-miterlimit:4;" d="M 182.269531 206.21875 L 153.269531 189.550781 C 153.128906 189.46875 152.949219 189.46875 152.8125 189.558594 C 152.671875 189.648438 152.59375 189.804688 152.609375 189.96875 C 153.488281 200.988281 152.730469 212.308594 152.730469 223.390625 "/>
<path style="fill:none;stroke-width:2;stroke-linecap:butt;stroke-linejoin:miter;stroke:rgb(90.980392%,27.058824%,16.078431%);stroke-opacity:1;stroke-miterlimit:4;" d="M 145.96875 219.421875 L 145.648438 185.839844 C 145.644531 185.441406 145.46875 185.144531 145.128906 184.949219 L 120.371094 170.660156 C 119.996094 170.441406 119.808594 170.546875 119.808594 170.980469 L 119.71875 204.300781 "/>
<path style="fill:none;stroke-width:2;stroke-linecap:butt;stroke-linejoin:miter;stroke:rgb(90.980392%,27.058824%,16.078431%);stroke-opacity:1;stroke-miterlimit:4;" d="M 112.75 200.238281 L 112.738281 166.898438 C 112.742188 166.523438 112.539062 166.171875 112.210938 165.980469 L 83.398438 149.5 "/>
<path style="fill:none;stroke-width:2;stroke-linecap:butt;stroke-linejoin:miter;stroke:rgb(90.980392%,27.058824%,16.078431%);stroke-opacity:1;stroke-miterlimit:4;" d="M 83.351562 121.238281 L 83.449219 140.929688 C 83.449219 141.148438 83.542969 141.316406 83.730469 141.429688 L 112.199219 157.898438 C 112.566406 158.113281 112.75 158.011719 112.75 157.589844 L 112.75 128.511719 C 112.75 128.316406 112.644531 128.140625 112.480469 128.050781 L 83.441406 111.21875 "/>
<path style="fill:none;stroke-width:2;stroke-linecap:butt;stroke-linejoin:miter;stroke:rgb(54.117647%,44.313725%,56.470588%);stroke-opacity:1;stroke-miterlimit:4;" d="M 147.421875 104.179688 L 146.269531 105.320312 "/>
<path style="fill:none;stroke-width:2;stroke-linecap:butt;stroke-linejoin:miter;stroke:rgb(60%,49.019608%,58.823529%);stroke-opacity:1;stroke-miterlimit:4;" d="M 146.269531 105.320312 L 119.910156 90.089844 "/>
<path style="fill:none;stroke-width:2;stroke-linecap:butt;stroke-linejoin:miter;stroke:rgb(98.823529%,71.372549%,9.019608%);stroke-opacity:1;stroke-miterlimit:4;" d="M 245.339844 90.199219 L 244.980469 123.640625 C 244.980469 123.988281 244.828125 124.25 244.53125 124.429688 C 242.109375 125.875 239.667969 127.277344 237.199219 128.628906 C 231.410156 131.789062 225.679688 135.878906 219.339844 138.789062 C 219.199219 138.855469 219.035156 138.839844 218.902344 138.753906 C 218.769531 138.667969 218.691406 138.519531 218.691406 138.359375 L 218.878906 109.671875 C 218.878906 109.417969 218.757812 109.316406 218.511719 109.371094 L 217.980469 109.488281 "/>
<path style="fill:none;stroke-width:2;stroke-linecap:butt;stroke-linejoin:miter;stroke:rgb(97.647059%,57.647059%,18.431373%);stroke-opacity:1;stroke-miterlimit:4;" d="M 182.28125 126.179688 L 182.238281 160.089844 "/>
<path style="fill:none;stroke-width:2;stroke-linecap:butt;stroke-linejoin:miter;stroke:rgb(98.823529%,71.372549%,9.019608%);stroke-opacity:1;stroke-miterlimit:4;" d="M 281.539062 111.039062 L 252.191406 127.980469 C 251.898438 128.148438 251.71875 128.457031 251.71875 128.789062 L 251.828125 157.78125 C 251.832031 157.875 251.882812 157.960938 251.964844 158.007812 C 252.046875 158.054688 252.148438 158.054688 252.230469 158.011719 L 281.5 141.390625 "/>
<path style="fill:none;stroke-width:2;stroke-linecap:butt;stroke-linejoin:miter;stroke:rgb(98.823529%,71.372549%,9.019608%);stroke-opacity:1;stroke-miterlimit:4;" d="M 281.578125 149.179688 L 252.328125 166.070312 C 252.011719 166.257812 251.851562 166.535156 251.859375 166.898438 L 251.96875 200.480469 "/>
<path style="fill:none;stroke-width:2;stroke-linecap:butt;stroke-linejoin:miter;stroke:rgb(98.823529%,71.372549%,9.019608%);stroke-opacity:1;stroke-miterlimit:4;" d="M 245.039062 204.371094 L 245 170.988281 C 245 170.839844 244.917969 170.699219 244.785156 170.621094 C 244.652344 170.546875 244.492188 170.546875 244.359375 170.621094 L 219.289062 185.039062 C 218.976562 185.226562 218.820312 185.5 218.820312 185.859375 L 218.988281 219.449219 "/>
<path style="fill:none;stroke-width:2;stroke-linecap:butt;stroke-linejoin:miter;stroke:rgb(98.823529%,71.372549%,9.019608%);stroke-opacity:1;stroke-miterlimit:4;" d="M 212.011719 223.429688 L 212 189.941406 C 212 189.804688 211.929688 189.679688 211.808594 189.609375 C 211.691406 189.542969 211.546875 189.542969 211.429688 189.609375 L 186.03125 204.070312 "/>
<path style="fill:none;stroke-width:2;stroke-linecap:butt;stroke-linejoin:miter;stroke:rgb(98.823529%,71.372549%,9.019608%);stroke-opacity:1;stroke-miterlimit:4;" d="M 182.46875 198.371094 L 211.558594 181.511719 C 211.832031 181.355469 212 181.066406 212 180.75 L 212 152.070312 C 212 151.878906 211.898438 151.703125 211.734375 151.605469 C 211.570312 151.511719 211.363281 151.511719 211.199219 151.609375 L 186.191406 165.878906 "/>
<path style="fill:none;stroke-width:2;stroke-linecap:butt;stroke-linejoin:miter;stroke:rgb(98.823529%,71.372549%,9.019608%);stroke-opacity:1;stroke-miterlimit:4;" d="M 182.921875 160.421875 C 183.574219 159.738281 184.21875 159.214844 184.859375 158.851562 C 193.652344 153.75 202.515625 148.625 211.449219 143.46875 C 211.738281 143.304688 211.878906 143.054688 211.878906 142.71875 L 211.878906 109.511719 "/>
<path style="fill:none;stroke-width:2;stroke-linecap:butt;stroke-linejoin:miter;stroke:rgb(61.176471%,62.745098%,49.803922%);stroke-opacity:1;stroke-miterlimit:4;" d="M 211.878906 109.511719 L 212.261719 109.191406 "/>
<path style="fill:none;stroke-width:2;stroke-linecap:butt;stroke-linejoin:miter;stroke:rgb(60.784314%,75.294118%,58.823529%);stroke-opacity:1;stroke-miterlimit:4;" d="M 244.519531 90.238281 L 218.589844 105.210938 "/>
<path style="fill:none;stroke-width:2;stroke-linecap:butt;stroke-linejoin:miter;stroke:rgb(54.117647%,44.313725%,56.470588%);stroke-opacity:1;stroke-miterlimit:4;" d="M 115.101562 84.628906 C 114.386719 85.421875 113.617188 85.898438 112.789062 86.050781 "/>
<path style="fill:none;stroke-width:2;stroke-linecap:butt;stroke-linejoin:miter;stroke:rgb(60%,49.019608%,58.823529%);stroke-opacity:1;stroke-miterlimit:4;" d="M 112.789062 86.050781 L 84.5 69.738281 C 84.226562 69.578125 83.941406 69.550781 83.640625 69.648438 L 83.28125 69.761719 "/>
<path style="fill:none;stroke-width:2;stroke-linecap:butt;stroke-linejoin:miter;stroke:rgb(97.647059%,57.647059%,18.431373%);stroke-opacity:1;stroke-miterlimit:4;" d="M 182.269531 206.21875 L 182.269531 240.550781 "/>
<path style="fill:none;stroke-width:2;stroke-linecap:butt;stroke-linejoin:miter;stroke:rgb(97.647059%,57.647059%,18.431373%);stroke-opacity:1;stroke-miterlimit:4;" d="M 182.261719 168.089844 L 182.25 197.988281 "/>
<path style="fill:none;stroke-width:2;stroke-linecap:butt;stroke-linejoin:miter;stroke:rgb(90.980392%,27.058824%,16.078431%);stroke-opacity:1;stroke-miterlimit:4;" d="M 112.789062 86.050781 L 112.730469 119.441406 C 112.730469 119.828125 112.558594 119.921875 112.21875 119.730469 L 83.328125 103.148438 "/>
<path style="fill:none;stroke-width:2;stroke-linecap:butt;stroke-linejoin:miter;stroke:rgb(14.509804%,60.392157%,90.196078%);stroke-opacity:1;stroke-miterlimit:4;" d="M 207.769531 69.308594 C 207.894531 69.242188 207.96875 69.109375 207.96875 68.96875 C 207.96875 68.828125 207.894531 68.699219 207.769531 68.628906 L 182.558594 54.058594 C 182.4375 53.992188 182.289062 53.992188 182.171875 54.058594 L 156.898438 68.628906 C 156.777344 68.699219 156.699219 68.828125 156.699219 68.96875 C 156.699219 69.109375 156.777344 69.242188 156.898438 69.308594 L 182.191406 83.890625 C 182.3125 83.960938 182.460938 83.960938 182.578125 83.890625 L 207.769531 69.308594 "/>
<path style="fill:none;stroke-width:2;stroke-linecap:butt;stroke-linejoin:miter;stroke:rgb(90.980392%,27.058824%,16.078431%);stroke-opacity:1;stroke-miterlimit:4;" d="M 145.710938 176.359375 C 145.910156 167.441406 146.421875 157.058594 145.621094 147.558594 C 145.59375 147.234375 145.441406 146.988281 145.160156 146.828125 L 120.25 132.46875 C 120.148438 132.40625 120.019531 132.40625 119.914062 132.46875 C 119.808594 132.527344 119.746094 132.640625 119.75 132.761719 L 119.75 161.699219 C 119.75 162.023438 119.921875 162.320312 120.199219 162.480469 L 144.980469 176.769531 C 145.453125 177.042969 145.695312 176.90625 145.710938 176.359375 "/>
<path style="fill:none;stroke-width:2;stroke-linecap:butt;stroke-linejoin:miter;stroke:rgb(98.823529%,71.372549%,9.019608%);stroke-opacity:1;stroke-miterlimit:4;" d="M 242.390625 134.101562 L 219.109375 147.109375 C 218.886719 147.234375 218.75 147.464844 218.75 147.71875 L 218.75 176.710938 C 218.746094 176.84375 218.820312 176.96875 218.9375 177.035156 C 219.054688 177.101562 219.203125 177.097656 219.320312 177.03125 L 244.621094 162.371094 C 244.914062 162.195312 245.058594 161.941406 245.058594 161.601562 L 244.859375 132.898438 C 244.851562 132.574219 244.691406 132.445312 244.378906 132.519531 C 243.808594 132.648438 243.371094 132.957031 243.070312 133.449219 C 242.902344 133.730469 242.675781 133.945312 242.390625 134.101562 "/>
<path style=" stroke:none;fill-rule:nonzero;fill:rgb(23.137255%,66.27451%,99.215686%);fill-opacity:1;" d="M 211.761719 28.808594 L 182.859375 45.601562 C 182.558594 45.773438 182.261719 45.773438 181.96875 45.601562 L 152.808594 28.871094 L 181.859375 12.019531 C 182.171875 11.839844 182.484375 11.839844 182.789062 12.019531 Z M 211.761719 28.808594 "/>
<path style=" stroke:none;fill-rule:nonzero;fill:rgb(5.490196%,54.509804%,80.784314%);fill-opacity:1;" d="M 152.808594 28.871094 L 181.96875 45.601562 C 182.261719 45.773438 182.558594 45.773438 182.859375 45.601562 L 211.761719 28.808594 C 216.6875 26.222656 218.957031 27.488281 218.570312 32.601562 C 217.355469 33.613281 216.03125 34.535156 214.589844 35.371094 C 206.289062 40.128906 198.011719 44.898438 189.761719 49.671875 C 189.445312 49.851562 189.445312 50.03125 189.761719 50.210938 L 215.019531 64.738281 C 215.3125 64.90625 215.601562 64.90625 215.890625 64.738281 C 225.257812 59.234375 234.636719 53.785156 244.03125 48.398438 C 244.195312 48.308594 244.308594 48.1875 244.371094 48.039062 C 244.457031 47.859375 244.5 47.699219 244.5 47.558594 C 244.847656 47.738281 245.28125 47.671875 245.800781 47.351562 C 248.125 45.890625 250.011719 46.207031 251.449219 48.300781 C 251.636719 48.566406 251.738281 48.859375 251.75 49.179688 L 251.890625 51.980469 L 223.25 68.480469 C 223.054688 68.59375 222.9375 68.800781 222.9375 69.023438 C 222.9375 69.25 223.054688 69.457031 223.25 69.570312 L 251.78125 86.101562 C 251.980469 88.300781 251.652344 89.839844 250.800781 90.71875 C 249.058594 91.839844 247.238281 91.667969 245.339844 90.199219 C 245.058594 90.273438 244.785156 90.285156 244.519531 90.238281 L 215.929688 73.328125 C 215.601562 73.136719 215.199219 73.136719 214.871094 73.328125 L 189.941406 87.671875 C 189.796875 87.753906 189.707031 87.910156 189.707031 88.074219 C 189.707031 88.242188 189.796875 88.394531 189.941406 88.480469 L 218.589844 105.210938 C 218.964844 106.964844 218.761719 108.390625 217.980469 109.488281 C 216.285156 110.96875 214.378906 110.871094 212.261719 109.191406 L 182.878906 92.300781 C 182.582031 92.125 182.214844 92.125 181.921875 92.300781 L 152.910156 109.171875 C 152.679688 105.699219 151.980469 102.398438 147.421875 104.179688 L 174.828125 88.269531 C 174.9375 88.210938 175 88.097656 175 87.972656 C 174.996094 87.847656 174.929688 87.734375 174.820312 87.671875 L 149.878906 73.359375 C 149.550781 73.167969 149.148438 73.167969 148.820312 73.359375 L 119.910156 90.089844 C 119.949219 90.175781 119.988281 90.261719 120.019531 90.351562 C 119.511719 87.179688 119.921875 84.371094 115.101562 84.628906 L 141.621094 69.308594 C 142.011719 69.082031 142.011719 68.855469 141.621094 68.628906 L 112.890625 51.898438 C 112.300781 47.878906 115.050781 44.828125 118.921875 47.449219 C 119.253906 47.675781 119.535156 47.78125 119.761719 47.761719 C 120.085938 47.738281 120.386719 47.613281 120.660156 47.378906 C 120.6875 47.707031 120.722656 47.976562 120.769531 48.191406 C 120.828125 48.421875 121 48.621094 121.28125 48.78125 C 130.546875 54.101562 139.78125 59.398438 148.980469 64.671875 C 149.269531 64.832031 149.625 64.828125 149.910156 64.660156 L 174.78125 50.25 C 174.914062 50.175781 174.996094 50.035156 174.996094 49.878906 C 174.996094 49.726562 174.914062 49.582031 174.78125 49.5 L 146.019531 32.769531 C 145.726562 30.828125 145.972656 29.417969 146.761719 28.53125 C 148.207031 26.890625 150.222656 27.003906 152.808594 28.871094 Z M 207.769531 69.308594 C 207.894531 69.242188 207.96875 69.109375 207.96875 68.96875 C 207.96875 68.828125 207.894531 68.699219 207.769531 68.628906 L 182.558594 54.058594 C 182.4375 53.992188 182.289062 53.992188 182.171875 54.058594 L 156.898438 68.628906 C 156.777344 68.699219 156.699219 68.828125 156.699219 68.96875 C 156.699219 69.109375 156.777344 69.242188 156.898438 69.308594 L 182.191406 83.890625 C 182.3125 83.960938 182.460938 83.960938 182.578125 83.890625 Z M 207.769531 69.308594 "/>
<path style=" stroke:none;fill-rule:nonzero;fill:rgb(23.137255%,66.27451%,99.215686%);fill-opacity:1;" d="M 218.570312 32.601562 L 244.5 47.558594 C 244.5 47.699219 244.457031 47.859375 244.371094 48.039062 C 244.308594 48.1875 244.195312 48.308594 244.03125 48.398438 C 234.636719 53.785156 225.257812 59.234375 215.890625 64.738281 C 215.601562 64.90625 215.3125 64.90625 215.019531 64.738281 L 189.761719 50.210938 C 189.445312 50.03125 189.445312 49.851562 189.761719 49.671875 C 198.011719 44.898438 206.289062 40.128906 214.589844 35.371094 C 216.03125 34.535156 217.355469 33.613281 218.570312 32.601562 Z M 218.570312 32.601562 "/>
<path style=" stroke:none;fill-rule:nonzero;fill:rgb(23.137255%,66.27451%,99.215686%);fill-opacity:1;" d="M 146.019531 32.769531 L 174.78125 49.5 C 174.914062 49.582031 174.996094 49.726562 174.996094 49.878906 C 174.996094 50.035156 174.914062 50.175781 174.78125 50.25 L 149.910156 64.660156 C 149.625 64.828125 149.269531 64.832031 148.980469 64.671875 C 139.78125 59.398438 130.546875 54.101562 121.28125 48.78125 C 121 48.621094 120.828125 48.421875 120.769531 48.191406 C 120.722656 47.976562 120.6875 47.707031 120.660156 47.378906 Z M 146.019531 32.769531 "/>
<path style=" stroke:none;fill-rule:nonzero;fill:rgb(23.137255%,66.27451%,99.215686%);fill-opacity:1;" d="M 112.890625 51.898438 L 141.621094 68.628906 C 142.011719 68.855469 142.011719 69.082031 141.621094 69.308594 L 115.101562 84.628906 C 114.386719 85.421875 113.617188 85.898438 112.789062 86.050781 L 84.5 69.738281 C 84.226562 69.578125 83.941406 69.550781 83.640625 69.648438 L 83.28125 69.761719 C 83.273438 69.558594 83.316406 69.34375 83.410156 69.109375 C 83.488281 68.921875 83.636719 68.765625 83.851562 68.640625 C 93.53125 62.941406 103.210938 57.359375 112.890625 51.898438 Z M 112.890625 51.898438 "/>
<path style=" stroke:none;fill-rule:nonzero;fill:rgb(23.137255%,66.27451%,99.215686%);fill-opacity:1;" d="M 251.890625 51.980469 L 281.46875 68.929688 L 251.78125 86.101562 L 223.25 69.570312 C 223.054688 69.457031 222.9375 69.25 222.9375 69.023438 C 222.9375 68.800781 223.054688 68.59375 223.25 68.480469 Z M 251.890625 51.980469 "/>
<path style=" stroke:none;fill-rule:nonzero;fill:rgb(23.137255%,66.27451%,99.215686%);fill-opacity:1;" d="M 207.769531 69.308594 L 182.578125 83.890625 C 182.460938 83.960938 182.3125 83.960938 182.191406 83.890625 L 156.898438 69.308594 C 156.777344 69.242188 156.699219 69.109375 156.699219 68.96875 C 156.699219 68.828125 156.777344 68.699219 156.898438 68.628906 L 182.171875 54.058594 C 182.289062 53.992188 182.4375 53.992188 182.558594 54.058594 L 207.769531 68.628906 C 207.894531 68.699219 207.96875 68.828125 207.96875 68.96875 C 207.96875 69.109375 207.894531 69.242188 207.769531 69.308594 Z M 207.769531 69.308594 "/>
<path style=" stroke:none;fill-rule:nonzero;fill:rgb(98.431373%,83.921569%,18.039216%);fill-opacity:1;" d="M 281.46875 68.929688 L 281.460938 103.160156 L 252.359375 119.871094 C 252.234375 119.941406 252.078125 119.9375 251.953125 119.863281 C 251.824219 119.792969 251.75 119.65625 251.75 119.511719 C 251.835938 110.511719 251.929688 101.460938 252.03125 92.359375 C 252.03125 91.933594 251.953125 91.585938 251.800781 91.320312 C 251.511719 90.832031 251.179688 90.632812 250.800781 90.71875 C 251.652344 89.839844 251.980469 88.300781 251.78125 86.101562 Z M 281.46875 68.929688 "/>
<path style=" stroke:none;fill-rule:nonzero;fill:rgb(96.862745%,31.372549%,18.431373%);fill-opacity:1;" d="M 112.789062 86.050781 L 112.730469 119.441406 C 112.730469 119.828125 112.558594 119.921875 112.21875 119.730469 L 83.328125 103.148438 L 83.28125 69.761719 L 83.640625 69.648438 C 83.941406 69.550781 84.226562 69.578125 84.5 69.738281 Z M 112.789062 86.050781 "/>
<path style=" stroke:none;fill-rule:nonzero;fill:rgb(23.137255%,66.27451%,99.215686%);fill-opacity:1;" d="M 147.421875 104.179688 L 146.269531 105.320312 L 119.910156 90.089844 L 148.820312 73.359375 C 149.148438 73.167969 149.550781 73.167969 149.878906 73.359375 L 174.820312 87.671875 C 174.929688 87.734375 174.996094 87.847656 175 87.972656 C 175 88.097656 174.9375 88.210938 174.828125 88.269531 Z M 147.421875 104.179688 "/>
<path style=" stroke:none;fill-rule:nonzero;fill:rgb(23.137255%,66.27451%,99.215686%);fill-opacity:1;" d="M 244.519531 90.238281 L 218.589844 105.210938 L 189.941406 88.480469 C 189.796875 88.394531 189.707031 88.242188 189.707031 88.074219 C 189.707031 87.910156 189.796875 87.753906 189.941406 87.671875 L 214.871094 73.328125 C 215.199219 73.136719 215.601562 73.136719 215.929688 73.328125 Z M 244.519531 90.238281 "/>
<path style=" stroke:none;fill-rule:nonzero;fill:rgb(85.098039%,22.352941%,13.333333%);fill-opacity:1;" d="M 115.101562 84.628906 C 119.921875 84.371094 119.511719 87.179688 120.019531 90.351562 C 119.148438 91.128906 119.78125 92.351562 119.78125 93.230469 C 119.714844 103.296875 119.714844 113.40625 119.78125 123.558594 C 119.785156 123.945312 119.957031 124.238281 120.289062 124.429688 L 145.199219 138.808594 C 145.3125 138.875 145.453125 138.871094 145.566406 138.804688 C 145.679688 138.742188 145.75 138.621094 145.75 138.488281 C 145.757812 128.15625 145.757812 117.742188 145.75 107.25 C 145.75 106.558594 146.089844 105.96875 146.269531 105.320312 L 147.421875 104.179688 C 151.980469 102.398438 152.679688 105.699219 152.910156 109.171875 C 152.636719 109.9375 152.578125 110.398438 152.730469 110.558594 C 152.75 121.265625 152.757812 131.828125 152.75 142.25 C 152.75 142.820312 153.050781 143.34375 153.539062 143.621094 L 182.238281 160.089844 C 181.78125 159.34375 182.007812 159.453125 182.921875 160.421875 C 184.875 161.460938 185.964844 163.28125 186.191406 165.878906 L 182.261719 168.089844 L 153.570312 151.550781 C 153.402344 151.453125 153.195312 151.453125 153.027344 151.550781 C 152.863281 151.648438 152.757812 151.828125 152.761719 152.019531 L 152.878906 180.808594 C 152.882812 181.140625 153.054688 181.445312 153.339844 181.609375 C 162.632812 186.984375 171.878906 192.351562 181.078125 197.710938 C 181.121094 197.738281 181.183594 197.785156 181.269531 197.859375 C 181.457031 198.027344 181.785156 198.070312 182.25 197.988281 C 182.242188 198.0625 182.316406 198.191406 182.46875 198.371094 C 184.722656 199.355469 185.910156 201.257812 186.03125 204.070312 L 182.269531 206.21875 L 153.269531 189.550781 C 153.128906 189.46875 152.949219 189.46875 152.8125 189.558594 C 152.671875 189.648438 152.59375 189.804688 152.609375 189.96875 C 153.488281 200.988281 152.730469 212.308594 152.730469 223.390625 C 147.800781 227.128906 146.148438 223.730469 145.96875 219.421875 L 145.648438 185.839844 C 145.644531 185.441406 145.46875 185.144531 145.128906 184.949219 L 120.371094 170.660156 C 119.996094 170.441406 119.808594 170.546875 119.808594 170.980469 L 119.71875 204.300781 C 115.167969 207.261719 112.84375 205.90625 112.75 200.238281 L 112.738281 166.898438 C 112.742188 166.523438 112.539062 166.171875 112.210938 165.980469 L 83.398438 149.5 C 80.234375 147.921875 79.238281 145.867188 80.421875 143.339844 C 80.585938 142.980469 80.851562 142.710938 81.210938 142.53125 L 82.75 141.75 C 83.0625 141.589844 83.261719 141.269531 83.269531 140.910156 L 83.351562 121.238281 L 83.449219 140.929688 C 83.449219 141.148438 83.542969 141.316406 83.730469 141.429688 L 112.199219 157.898438 C 112.566406 158.113281 112.75 158.011719 112.75 157.589844 L 112.75 128.511719 C 112.75 128.316406 112.644531 128.140625 112.480469 128.050781 L 83.441406 111.21875 C 80.039062 109.699219 79.085938 107.589844 80.578125 104.890625 C 80.703125 104.65625 80.898438 104.460938 81.140625 104.328125 L 83.328125 103.148438 L 112.21875 119.730469 C 112.558594 119.921875 112.730469 119.828125 112.730469 119.441406 L 112.789062 86.050781 C 113.617188 85.898438 114.386719 85.421875 115.101562 84.628906 Z M 145.710938 176.359375 C 145.910156 167.441406 146.421875 157.058594 145.621094 147.558594 C 145.59375 147.234375 145.441406 146.988281 145.160156 146.828125 L 120.25 132.46875 C 120.148438 132.40625 120.019531 132.40625 119.914062 132.46875 C 119.808594 132.527344 119.746094 132.640625 119.75 132.761719 L 119.75 161.699219 C 119.75 162.023438 119.921875 162.320312 120.199219 162.480469 L 144.980469 176.769531 C 145.453125 177.042969 145.695312 176.90625 145.710938 176.359375 Z M 145.710938 176.359375 "/>
<path style=" stroke:none;fill-rule:nonzero;fill:rgb(96.862745%,31.372549%,18.431373%);fill-opacity:1;" d="M 120.019531 90.351562 C 119.988281 90.261719 119.949219 90.175781 119.910156 90.089844 L 146.269531 105.320312 C 146.089844 105.96875 145.75 106.558594 145.75 107.25 C 145.757812 117.742188 145.757812 128.15625 145.75 138.488281 C 145.75 138.621094 145.679688 138.742188 145.566406 138.804688 C 145.453125 138.871094 145.3125 138.875 145.199219 138.808594 L 120.289062 124.429688 C 119.957031 124.238281 119.785156 123.945312 119.78125 123.558594 C 119.714844 113.40625 119.714844 103.296875 119.78125 93.230469 C 119.78125 92.351562 119.148438 91.128906 120.019531 90.351562 Z M 120.019531 90.351562 "/>
<path style=" stroke:none;fill-rule:nonzero;fill:rgb(98.431373%,83.921569%,18.039216%);fill-opacity:1;" d="M 244.519531 90.238281 C 244.785156 90.285156 245.058594 90.273438 245.339844 90.199219 L 244.980469 123.640625 C 244.980469 123.988281 244.828125 124.25 244.53125 124.429688 C 242.109375 125.875 239.667969 127.277344 237.199219 128.628906 C 231.410156 131.789062 225.679688 135.878906 219.339844 138.789062 C 219.199219 138.855469 219.035156 138.839844 218.902344 138.753906 C 218.769531 138.667969 218.691406 138.519531 218.691406 138.359375 L 218.878906 109.671875 C 218.878906 109.417969 218.757812 109.316406 218.511719 109.371094 L 217.980469 109.488281 C 218.761719 108.390625 218.964844 106.964844 218.589844 105.210938 Z M 244.519531 90.238281 "/>
<path style=" stroke:none;fill-rule:nonzero;fill:rgb(99.215686%,58.823529%,0%);fill-opacity:1;" d="M 245.339844 90.199219 C 247.238281 91.667969 249.058594 91.839844 250.800781 90.71875 C 251.179688 90.632812 251.511719 90.832031 251.800781 91.320312 C 251.953125 91.585938 252.03125 91.933594 252.03125 92.359375 C 251.929688 101.460938 251.835938 110.511719 251.75 119.511719 C 251.75 119.65625 251.824219 119.792969 251.953125 119.863281 C 252.078125 119.9375 252.234375 119.941406 252.359375 119.871094 L 281.460938 103.160156 C 286.113281 105.808594 286.140625 108.433594 281.539062 111.039062 L 252.191406 127.980469 C 251.898438 128.148438 251.71875 128.457031 251.71875 128.789062 L 251.828125 157.78125 C 251.832031 157.875 251.882812 157.960938 251.964844 158.007812 C 252.046875 158.054688 252.148438 158.054688 252.230469 158.011719 L 281.5 141.390625 C 286.078125 143.804688 286.105469 146.398438 281.578125 149.179688 L 252.328125 166.070312 C 252.011719 166.257812 251.851562 166.535156 251.859375 166.898438 L 251.96875 200.480469 C 252.378906 205.339844 248.890625 207.308594 245.039062 204.371094 L 245 170.988281 C 245 170.839844 244.917969 170.699219 244.785156 170.621094 C 244.652344 170.546875 244.492188 170.546875 244.359375 170.621094 L 219.289062 185.039062 C 218.976562 185.226562 218.820312 185.5 218.820312 185.859375 L 218.988281 219.449219 C 218.410156 222.179688 218.820312 225.03125 214.96875 225.039062 C 214.722656 225.039062 214.480469 224.96875 214.269531 224.839844 L 212.011719 223.429688 L 212 189.941406 C 212 189.804688 211.929688 189.679688 211.808594 189.609375 C 211.691406 189.542969 211.546875 189.542969 211.429688 189.609375 L 186.03125 204.070312 C 185.910156 201.257812 184.722656 199.355469 182.46875 198.371094 L 211.558594 181.511719 C 211.832031 181.355469 212 181.066406 212 180.75 L 212 152.070312 C 212 151.878906 211.898438 151.703125 211.734375 151.605469 C 211.570312 151.511719 211.363281 151.511719 211.199219 151.609375 L 186.191406 165.878906 C 185.964844 163.28125 184.875 161.460938 182.921875 160.421875 C 183.574219 159.738281 184.21875 159.214844 184.859375 158.851562 C 193.652344 153.75 202.515625 148.625 211.449219 143.46875 C 211.738281 143.304688 211.878906 143.054688 211.878906 142.71875 L 211.878906 109.511719 L 212.261719 109.191406 C 214.378906 110.871094 216.285156 110.96875 217.980469 109.488281 L 218.511719 109.371094 C 218.757812 109.316406 218.878906 109.417969 218.878906 109.671875 L 218.691406 138.359375 C 218.691406 138.519531 218.769531 138.667969 218.902344 138.753906 C 219.035156 138.839844 219.199219 138.855469 219.339844 138.789062 C 225.679688 135.878906 231.410156 131.789062 237.199219 128.628906 C 239.667969 127.277344 242.109375 125.875 244.53125 124.429688 C 244.828125 124.25 244.980469 123.988281 244.980469 123.640625 Z M 242.390625 134.101562 L 219.109375 147.109375 C 218.886719 147.234375 218.75 147.464844 218.75 147.71875 L 218.75 176.710938 C 218.746094 176.84375 218.820312 176.96875 218.9375 177.035156 C 219.054688 177.101562 219.203125 177.097656 219.320312 177.03125 L 244.621094 162.371094 C 244.914062 162.195312 245.058594 161.941406 245.058594 161.601562 L 244.859375 132.898438 C 244.851562 132.574219 244.691406 132.445312 244.378906 132.519531 C 243.808594 132.648438 243.371094 132.957031 243.070312 133.449219 C 242.902344 133.730469 242.675781 133.945312 242.390625 134.101562 Z M 242.390625 134.101562 "/>
<path style=" stroke:none;fill-rule:nonzero;fill:rgb(23.137255%,66.27451%,99.215686%);fill-opacity:1;" d="M 212.261719 109.191406 L 211.878906 109.511719 C 211.511719 109.441406 211.238281 109.460938 211.058594 109.558594 C 201.511719 115.121094 191.921875 120.660156 182.28125 126.179688 L 152.910156 109.171875 L 181.921875 92.300781 C 182.214844 92.125 182.582031 92.125 182.878906 92.300781 Z M 212.261719 109.191406 "/>
<path style=" stroke:none;fill-rule:nonzero;fill:rgb(96.862745%,31.372549%,18.431373%);fill-opacity:1;" d="M 152.910156 109.171875 L 182.28125 126.179688 L 182.238281 160.089844 L 153.539062 143.621094 C 153.050781 143.34375 152.75 142.820312 152.75 142.25 C 152.757812 131.828125 152.75 121.265625 152.730469 110.558594 C 152.578125 110.398438 152.636719 109.9375 152.910156 109.171875 Z M 152.910156 109.171875 "/>
<path style=" stroke:none;fill-rule:nonzero;fill:rgb(98.431373%,83.921569%,18.039216%);fill-opacity:1;" d="M 211.878906 109.511719 L 211.878906 142.71875 C 211.878906 143.054688 211.738281 143.304688 211.449219 143.46875 C 202.515625 148.625 193.652344 153.75 184.859375 158.851562 C 184.21875 159.214844 183.574219 159.738281 182.921875 160.421875 C 182.007812 159.453125 181.78125 159.34375 182.238281 160.089844 L 182.28125 126.179688 C 191.921875 120.660156 201.511719 115.121094 211.058594 109.558594 C 211.238281 109.460938 211.511719 109.441406 211.878906 109.511719 Z M 211.878906 109.511719 "/>
<path style=" stroke:none;fill-rule:nonzero;fill:rgb(98.431373%,83.921569%,18.039216%);fill-opacity:1;" d="M 281.539062 111.039062 L 281.5 141.390625 L 252.230469 158.011719 C 252.148438 158.054688 252.046875 158.054688 251.964844 158.007812 C 251.882812 157.960938 251.832031 157.875 251.828125 157.78125 L 251.71875 128.789062 C 251.71875 128.457031 251.898438 128.148438 252.191406 127.980469 Z M 281.539062 111.039062 "/>
<path style=" stroke:none;fill-rule:nonzero;fill:rgb(96.862745%,31.372549%,18.431373%);fill-opacity:1;" d="M 83.441406 111.21875 L 112.480469 128.050781 C 112.644531 128.140625 112.75 128.316406 112.75 128.511719 L 112.75 157.589844 C 112.75 158.011719 112.566406 158.113281 112.199219 157.898438 L 83.730469 141.429688 C 83.542969 141.316406 83.449219 141.148438 83.449219 140.929688 L 83.351562 121.238281 Z M 83.441406 111.21875 "/>
<path style=" stroke:none;fill-rule:nonzero;fill:rgb(96.862745%,31.372549%,18.431373%);fill-opacity:1;" d="M 145.621094 147.558594 C 146.421875 157.058594 145.910156 167.441406 145.710938 176.359375 C 145.695312 176.90625 145.453125 177.042969 144.980469 176.769531 L 120.199219 162.480469 C 119.921875 162.320312 119.75 162.023438 119.75 161.699219 L 119.75 132.761719 C 119.746094 132.640625 119.808594 132.527344 119.914062 132.46875 C 120.019531 132.40625 120.148438 132.40625 120.25 132.46875 L 145.160156 146.828125 C 145.441406 146.988281 145.59375 147.234375 145.621094 147.558594 Z M 145.621094 147.558594 "/>
<path style=" stroke:none;fill-rule:nonzero;fill:rgb(98.431373%,83.921569%,18.039216%);fill-opacity:1;" d="M 243.070312 133.449219 C 243.371094 132.957031 243.808594 132.648438 244.378906 132.519531 C 244.691406 132.445312 244.851562 132.574219 244.859375 132.898438 L 245.058594 161.601562 C 245.058594 161.941406 244.914062 162.195312 244.621094 162.371094 L 219.320312 177.03125 C 219.203125 177.097656 219.054688 177.101562 218.9375 177.035156 C 218.820312 176.96875 218.746094 176.84375 218.75 176.710938 L 218.75 147.71875 C 218.75 147.464844 218.886719 147.234375 219.109375 147.109375 L 242.390625 134.101562 C 242.675781 133.945312 242.902344 133.730469 243.070312 133.449219 Z M 243.070312 133.449219 "/>
<path style=" stroke:none;fill-rule:nonzero;fill:rgb(98.431373%,83.921569%,18.039216%);fill-opacity:1;" d="M 281.578125 149.179688 L 281.539062 182.480469 C 281.539062 183.023438 281.253906 183.527344 280.789062 183.800781 L 251.96875 200.480469 L 251.859375 166.898438 C 251.851562 166.535156 252.011719 166.257812 252.328125 166.070312 Z M 281.578125 149.179688 "/>
<path style=" stroke:none;fill-rule:nonzero;fill:rgb(96.862745%,31.372549%,18.431373%);fill-opacity:1;" d="M 112.75 200.238281 L 83.851562 183.558594 C 83.53125 183.375 83.371094 183.09375 83.371094 182.71875 L 83.398438 149.5 L 112.210938 165.980469 C 112.539062 166.171875 112.742188 166.523438 112.738281 166.898438 Z M 112.75 200.238281 "/>
<path style=" stroke:none;fill-rule:nonzero;fill:rgb(96.862745%,31.372549%,18.431373%);fill-opacity:1;" d="M 182.261719 168.089844 L 182.25 197.988281 C 181.785156 198.070312 181.457031 198.027344 181.269531 197.859375 C 181.183594 197.785156 181.121094 197.738281 181.078125 197.710938 C 171.878906 192.351562 162.632812 186.984375 153.339844 181.609375 C 153.054688 181.445312 152.882812 181.140625 152.878906 180.808594 L 152.761719 152.019531 C 152.757812 151.828125 152.863281 151.648438 153.027344 151.550781 C 153.195312 151.453125 153.402344 151.453125 153.570312 151.550781 Z M 182.261719 168.089844 "/>
<path style=" stroke:none;fill-rule:nonzero;fill:rgb(98.431373%,83.921569%,18.039216%);fill-opacity:1;" d="M 182.46875 198.371094 C 182.316406 198.191406 182.242188 198.0625 182.25 197.988281 L 182.261719 168.089844 L 186.191406 165.878906 L 211.199219 151.609375 C 211.363281 151.511719 211.570312 151.511719 211.734375 151.605469 C 211.898438 151.703125 212 151.878906 212 152.070312 L 212 180.75 C 212 181.066406 211.832031 181.355469 211.558594 181.511719 Z M 182.46875 198.371094 "/>
<path style=" stroke:none;fill-rule:nonzero;fill:rgb(96.862745%,31.372549%,18.431373%);fill-opacity:1;" d="M 145.96875 219.421875 L 119.71875 204.300781 L 119.808594 170.980469 C 119.808594 170.546875 119.996094 170.441406 120.371094 170.660156 L 145.128906 184.949219 C 145.46875 185.144531 145.644531 185.441406 145.648438 185.839844 Z M 145.96875 219.421875 "/>
<path style=" stroke:none;fill-rule:nonzero;fill:rgb(98.431373%,83.921569%,18.039216%);fill-opacity:1;" d="M 245.039062 204.371094 L 218.988281 219.449219 L 218.820312 185.859375 C 218.820312 185.5 218.976562 185.226562 219.289062 185.039062 L 244.359375 170.621094 C 244.492188 170.546875 244.652344 170.546875 244.785156 170.621094 C 244.917969 170.699219 245 170.839844 245 170.988281 Z M 245.039062 204.371094 "/>
<path style=" stroke:none;fill-rule:nonzero;fill:rgb(96.862745%,31.372549%,18.431373%);fill-opacity:1;" d="M 182.269531 206.21875 L 182.269531 240.550781 L 152.730469 223.390625 C 152.730469 212.308594 153.488281 200.988281 152.609375 189.96875 C 152.59375 189.804688 152.671875 189.648438 152.8125 189.558594 C 152.949219 189.46875 153.128906 189.46875 153.269531 189.550781 Z M 182.269531 206.21875 "/>
<path style=" stroke:none;fill-rule:nonzero;fill:rgb(98.431373%,83.921569%,18.039216%);fill-opacity:1;" d="M 212.011719 223.429688 L 182.269531 240.550781 L 182.269531 206.21875 L 186.03125 204.070312 L 211.429688 189.609375 C 211.546875 189.542969 211.691406 189.542969 211.808594 189.609375 C 211.929688 189.679688 212 189.804688 212 189.941406 Z M 212.011719 223.429688 "/>
<path style=" stroke:none;fill-rule:nonzero;fill:rgb(52.54902%,69.411765%,61.568627%);fill-opacity:1;" d="M 44.070312 276.28125 C 47.441406 279.46875 55.03125 285.761719 56.078125 290.21875 C 57.839844 297.730469 48.238281 303.039062 42.960938 297.800781 C 38.160156 293.035156 33.375 288.261719 28.601562 283.480469 C 24.21875 279.089844 22.378906 274.738281 27.101562 269.871094 C 35.261719 261.441406 40.636719 256.058594 43.230469 253.710938 C 48.878906 248.621094 58.210938 254.441406 55.96875 261.921875 C 54.660156 266.289062 47.390625 272.238281 44.058594 275.511719 C 43.792969 275.769531 43.796875 276.027344 44.070312 276.28125 Z M 38.53125 275.390625 C 42.589844 271.238281 46.691406 267.125 50.839844 263.050781 C 55.019531 258.949219 49.871094 252.761719 44.539062 258.078125 C 39.375 263.246094 34.363281 268.261719 29.511719 273.121094 C 27.988281 274.644531 27.988281 277.113281 29.511719 278.640625 C 34.601562 283.734375 39.804688 288.925781 45.109375 294.21875 C 48.121094 297.21875 52.949219 295.449219 52.261719 291.371094 C 51.730469 288.230469 41.199219 279.128906 38.519531 276.261719 C 38.246094 275.964844 38.25 275.675781 38.53125 275.390625 Z M 38.53125 275.390625 "/>
<path style=" stroke:none;fill-rule:nonzero;fill:rgb(52.54902%,69.411765%,61.568627%);fill-opacity:1;" d="M 70.710938 254.21875 C 77.121094 248.21875 87.210938 254.921875 83.710938 262.871094 C 81.929688 266.890625 75.578125 272.03125 72.179688 275.449219 C 71.921875 275.714844 71.921875 275.984375 72.179688 276.25 C 75.488281 279.699219 82.191406 285.011719 83.789062 289.109375 C 86.988281 297.261719 76.671875 303.359375 70.480469 297.28125 C 62 288.960938 56.738281 283.714844 54.699219 281.539062 C 51 277.589844 52.019531 273.058594 55.648438 269.308594 C 62.535156 262.195312 67.558594 257.167969 70.710938 254.21875 Z M 66.53125 275.390625 C 70.515625 271.316406 74.539062 267.277344 78.601562 263.269531 C 83.230469 258.710938 77.75 252.910156 72.710938 257.929688 C 67.46875 263.144531 62.398438 268.214844 57.488281 273.148438 C 55.988281 274.660156 55.988281 277.101562 57.488281 278.609375 C 62.625 283.761719 67.785156 288.921875 72.980469 294.089844 C 76.230469 297.320312 81.550781 295.078125 80.351562 291.078125 C 79.328125 287.699219 69.410156 279.371094 66.519531 276.261719 C 66.246094 275.964844 66.25 275.675781 66.53125 275.390625 Z M 66.53125 275.390625 "/>
<path style=" stroke:none;fill-rule:nonzero;fill:rgb(52.54902%,69.411765%,61.568627%);fill-opacity:1;" d="M 298.429688 275.660156 C 295.078125 272.191406 287.410156 265.988281 286.300781 261.648438 C 284.921875 256.289062 290.699219 250.828125 295.941406 252.300781 C 300.941406 253.699219 310.089844 264.71875 314.070312 268.710938 C 318.488281 273.160156 319.789062 277.328125 315.171875 282.089844 C 311.101562 286.28125 301.230469 298.101562 296.128906 299.679688 C 290.789062 301.328125 284.890625 295.78125 286.300781 290.398438 C 287.480469 285.929688 294.941406 279.980469 298.421875 276.421875 C 298.671875 276.167969 298.675781 275.914062 298.429688 275.660156 Z M 296.160156 295.390625 C 301.75 290.351562 307.820312 284.578125 312.761719 278.839844 C 314.28125 277.070312 314.578125 275.011719 312.929688 273.320312 C 310.691406 271.019531 305.480469 265.816406 297.300781 257.710938 C 292.921875 253.359375 287.660156 259.320312 291.449219 263.078125 C 295.617188 267.207031 299.804688 271.398438 304.011719 275.660156 C 304.261719 275.914062 304.261719 276.167969 304 276.421875 C 299.875 280.492188 295.800781 284.617188 291.78125 288.789062 C 288.269531 292.429688 290.699219 295.921875 295.289062 295.738281 C 295.625 295.726562 295.914062 295.609375 296.160156 295.390625 Z M 296.160156 295.390625 "/>
<path style=" stroke:none;fill-rule:nonzero;fill:rgb(52.54902%,69.411765%,61.568627%);fill-opacity:1;" d="M 328.308594 255.191406 C 332.816406 259.683594 337.324219 264.183594 341.828125 268.691406 C 346.300781 273.148438 347.839844 277.238281 343.128906 282.121094 C 338.269531 287.167969 333.335938 292.152344 328.328125 297.078125 C 322.339844 302.988281 312.039062 298.460938 314.480469 289.859375 C 315.609375 285.839844 323.238281 279.640625 326.351562 276.519531 C 326.589844 276.273438 326.589844 275.878906 326.351562 275.640625 C 323.078125 272.460938 316.519531 267.140625 314.800781 263.140625 C 311.140625 254.601562 321.621094 248.511719 328.308594 255.191406 Z M 331.929688 276.398438 C 328.023438 280.398438 324.074219 284.363281 320.078125 288.289062 C 315.199219 293.070312 321.398438 298.21875 324.558594 295.070312 C 330.234375 289.410156 335.671875 283.964844 340.878906 278.738281 C 342.390625 277.21875 342.382812 274.765625 340.871094 273.25 C 335.949219 268.324219 330.9375 263.308594 325.828125 258.199219 C 320.671875 253.039062 315.921875 259.648438 318.910156 262.578125 C 323.308594 266.875 327.648438 271.214844 331.929688 275.609375 C 332.191406 275.871094 332.191406 276.132812 331.929688 276.398438 Z M 331.929688 276.398438 "/>
</g>
</svg>
