<?xml version="1.0" encoding="UTF-8" standalone="no"?>
<!DOCTYPE svg PUBLIC "-//W3C//DTD SVG 1.1//EN" "http://www.w3.org/Graphics/SVG/1.1/DTD/svg11.dtd">
<svg xmlns="http://www.w3.org/2000/svg" version="1.1" viewBox="0.00 0.00 370.00 320.00">
<g stroke-width="2.00" fill="none" stroke-linecap="butt">
<path stroke="#39a137" vector-effect="non-scaling-stroke" d="
  M 213.78 27.79
  L 184.36 44.93
  A 1.04 1.02 44.5 0 1 183.31 44.93
  Q 168.97 36.64 154.46 28.27
  Q 154.19 28.12 154.23 27.48"
/>
<path stroke="#39a137" vector-effect="non-scaling-stroke" d="
  M 220.96 31.91
  L 191.42 48.96
  A 0.38 0.37 -45.3 0 0 191.42 49.61
  L 216.90 64.31
  A 1.04 1.04 0.0 0 0 217.94 64.31
  L 246.47 47.80
  A 1.08 1.07 -9.0 0 0 246.99 47.09
  Q 247.06 46.76 247.26 46.56"
/>
<path stroke="#39a137" vector-effect="non-scaling-stroke" d="
  M 254.37 51.25
  L 225.23 68.15
  A 0.59 0.59 0.0 0 0 225.24 69.17
  Q 238.78 76.95 252.20 84.79
  Q 254.11 85.90 254.15 87.73"
/>
<path stroke="#70b062" vector-effect="non-scaling-stroke" d="
  M 254.15 87.73
  C 253.90 92.83 250.51 91.52 247.55 90.15"
/>
<path stroke="#39a137" vector-effect="non-scaling-stroke" d="
  M 247.55 90.15
  L 217.81 73.09
  A 0.95 0.95 0.0 0 0 216.85 73.09
  L 191.46 87.77
  A 0.36 0.36 0.0 0 0 191.46 88.39
  L 220.84 105.52"
/>
<path stroke="#80c57f" vector-effect="non-scaling-stroke" d="
  M 220.84 105.52
  L 220.82 108.69"
/>
<path stroke="#70b062" vector-effect="non-scaling-stroke" d="
  M 220.82 108.69
  Q 218.18 112.36 214.97 110.00"
/>
<path stroke="#39a137" vector-effect="non-scaling-stroke" d="
  M 214.97 110.00
  L 184.28 92.44
  Q 183.82 92.18 183.36 92.44
  L 153.83 109.48"
/>
<path stroke="#798805" vector-effect="non-scaling-stroke" d="
  M 153.83 109.48
  Q 154.35 104.28 149.91 103.68"
/>
<path stroke="#39a137" vector-effect="non-scaling-stroke" d="
  M 149.91 103.68
  L 176.39 88.25
  A 0.24 0.24 0.0 0 0 176.39 87.84
  L 150.85 73.11
  A 1.12 1.12 0.0 0 0 149.75 73.11
  L 120.36 90.05"
/>
<path stroke="#7a931c" vector-effect="non-scaling-stroke" d="
  M 120.36 90.05
  Q 120.89 89.95 120.25 89.74"
/>
<path stroke="#798805" vector-effect="non-scaling-stroke" d="
  M 120.25 89.74
  Q 120.87 84.91 115.89 84.42"
/>
<path stroke="#39a137" vector-effect="non-scaling-stroke" d="
  M 115.89 84.42
  L 142.66 68.98
  Q 143.16 68.70 142.66 68.41
  Q 128.63 60.23 114.66 52.15
  C 113.79 51.64 113.26 50.76 112.74 49.93"
/>
<path stroke="#39a137" vector-effect="non-scaling-stroke" d="
  M 120.18 47.18
  L 149.87 64.33
  Q 150.35 64.61 150.83 64.33
  L 176.15 49.68
  Q 176.66 49.38 176.16 49.08
  L 147.18 31.76"
/>
<path stroke="#4aa454" vector-effect="non-scaling-stroke" d="
  M 147.18 31.76
  Q 147.14 30.09 146.46 28.90"
/>
<path stroke="#e3ded6" vector-effect="non-scaling-stroke" d="
  M 284.46 111.64
  L 254.89 128.61
  Q 254.50 128.83 254.50 129.28
  L 254.50 158.75
  Q 254.50 159.36 255.04 159.06
  L 284.45 142.26"
/>
<path stroke="#e3ded6" vector-effect="non-scaling-stroke" d="
  M 284.46 150.36
  L 254.96 167.27
  A 0.90 0.88 -15.3 0 0 254.51 168.04
  L 254.51 202.24"
/>
<path stroke="#e3ded6" vector-effect="non-scaling-stroke" d="
  M 247.52 206.37
  L 247.50 172.46
  A 0.49 0.49 0.0 0 0 246.77 172.04
  L 222.09 186.20
  A 2.65 2.64 -15.2 0 0 220.76 188.51
  L 220.90 221.90"
/>
<path stroke="#e3ded6" vector-effect="non-scaling-stroke" d="
  M 213.01 226.25
  Q 213.04 225.81 213.39 225.46
  Q 213.77 225.09 213.77 224.57
  L 213.85 191.48
  A 0.31 0.31 0.0 0 0 213.38 191.21
  L 187.41 206.08"
/>
<path stroke="#e3ded6" vector-effect="non-scaling-stroke" d="
  M 184.14 200.11
  L 213.42 183.07
  Q 213.77 182.87 213.77 182.46
  L 213.75 152.94
  Q 213.75 152.28 213.18 152.62
  L 185.50 168.71"
/>
<path stroke="#ddac74" vector-effect="non-scaling-stroke" d="
  M 185.50 168.71
  Q 185.51 168.61 185.53 168.52"
/>
<path stroke="#ddac74" vector-effect="non-scaling-stroke" d="
  M 183.93 161.53
  Q 184.19 160.52 183.82 160.73"
/>
<path stroke="#e3ded6" vector-effect="non-scaling-stroke" d="
  M 183.82 160.73
  Q 184.27 160.92 184.53 160.95
  Q 184.67 160.97 185.14 160.70
  Q 199.34 152.54 213.54 144.32
  Q 213.98 144.07 213.97 143.55
  Q 213.60 128.28 213.78 113.01
  Q 213.79 112.45 214.07 111.55
  Q 214.56 110.02 213.13 110.05"
/>
<path stroke="#9cba8f" vector-effect="non-scaling-stroke" d="
  M 213.13 110.05
  L 214.97 110.00"
/>
<path stroke="#e3ded6" vector-effect="non-scaling-stroke" d="
  M 220.82 108.69
  L 220.81 139.68
  A 0.24 0.24 0.0 0 0 221.17 139.88
  L 246.96 124.97
  A 1.09 1.07 75.3 0 0 247.50 124.03
  L 247.50 91.44
  Q 247.50 90.95 247.04 90.77
  L 246.71 90.65"
/>
<path stroke="#76ae81" vector-effect="non-scaling-stroke" d="
  M 147.18 31.76
  Q 146.51 32.20 145.90 32.31"
/>
<path stroke="#a59232" vector-effect="non-scaling-stroke" d="
  M 149.91 103.68
  Q 148.36 104.36 147.40 105.70"
/>
<path stroke="#a69d49" vector-effect="non-scaling-stroke" d="
  M 147.40 105.70
  L 120.36 90.05"
/>
<path stroke="#accfac" vector-effect="non-scaling-stroke" d="
  M 284.51 68.67
  L 254.59 86.25"
/>
<path stroke="#9cba8f" vector-effect="non-scaling-stroke" d="
  M 254.59 86.25
  Q 254.22 86.06 254.15 87.73"
/>
<path stroke="#e68417" vector-effect="non-scaling-stroke" d="
  M 120.25 89.74
  L 120.25 124.13
  A 0.98 0.97 14.7 0 0 120.75 124.98
  L 146.09 139.64
  Q 146.65 139.97 146.66 139.32
  Q 146.96 123.12 146.64 107.07
  Q 146.62 106.23 147.40 105.70"
/>
<path stroke="#a59232" vector-effect="non-scaling-stroke" d="
  M 153.83 109.48
  Q 154.30 109.01 153.89 109.58"
/>
<path stroke="#e68417" vector-effect="non-scaling-stroke" d="
  M 153.89 109.58
  L 153.83 143.38
  A 1.33 1.30 15.8 0 0 154.49 144.53
  L 183.93 161.53"
/>
<path stroke="#dca05d" vector-effect="non-scaling-stroke" d="
  M 183.93 161.53
  C 187.01 162.97 188.84 165.90 185.53 168.52"
/>
<path stroke="#e68417" vector-effect="non-scaling-stroke" d="
  M 185.53 168.52
  Q 182.94 169.02 181.53 168.22
  Q 168.02 160.50 154.39 152.63
  Q 153.75 152.26 153.75 153.00
  L 153.75 182.03
  A 1.11 1.09 15.3 0 0 154.30 182.98
  L 183.76 199.92"
/>
<path stroke="#ecb67a" vector-effect="non-scaling-stroke" d="
  M 183.76 199.92
  Q 183.69 199.34 184.14 200.11"
/>
<path stroke="#dca05d" vector-effect="non-scaling-stroke" d="
  M 184.14 200.11
  Q 187.82 202.20 187.41 206.08"
/>
<path stroke="#ecb67a" vector-effect="non-scaling-stroke" d="
  M 187.41 206.08
  L 183.77 208.11"
/>
<path stroke="#e68417" vector-effect="non-scaling-stroke" d="
  M 183.77 208.11
  L 154.50 191.31
  A 0.51 0.51 0.0 0 0 153.74 191.75
  L 153.72 225.51"
/>
<path stroke="#e68417" vector-effect="non-scaling-stroke" d="
  M 145.53 220.82
  Q 146.70 220.70 146.72 218.73
  Q 146.83 203.09 146.71 187.33
  Q 146.71 186.86 146.30 186.62
  L 121.44 172.33
  Q 120.20 171.62 120.20 173.04
  L 120.14 206.12"
/>
<path stroke="#e68417" vector-effect="non-scaling-stroke" d="
  M 112.56 201.79
  Q 112.83 201.76 113.04 201.59
  Q 113.31 201.38 113.31 201.03
  L 113.22 168.43
  A 1.63 1.62 15.0 0 0 112.40 167.02
  Q 97.76 158.62 84.17 150.87
  Q 83.19 150.31 83.03 152.28"
/>
<path stroke="#e68417" vector-effect="non-scaling-stroke" d="
  M 82.85 141.73
  L 112.46 158.94
  Q 113.25 159.40 113.25 158.48
  L 113.25 129.30
  Q 113.25 128.89 112.89 128.68
  Q 98.32 120.18 83.88 111.85
  Q 83.54 111.65 82.97 111.96"
/>
<path stroke="#a59232" vector-effect="non-scaling-stroke" d="
  M 115.89 84.42
  L 114.22 85.73"
/>
<path stroke="#a69d49" vector-effect="non-scaling-stroke" d="
  M 114.22 85.73
  L 113.74 85.88
  Q 113.26 86.03 112.82 85.78
  Q 93.01 74.21 84.22 69.30
  Q 83.74 69.02 82.99 69.51"
/>
<path stroke="#accfac" vector-effect="non-scaling-stroke" d="
  M 213.13 110.05
  L 184.53 126.54
  A 1.02 1.02 0.0 0 0 184.04 127.25
  Q 183.98 127.61 183.78 127.76"
/>
<path stroke="#a69d49" vector-effect="non-scaling-stroke" d="
  M 183.78 127.76
  L 183.76 127.33
  Q 183.74 126.84 183.31 126.59
  L 153.89 109.58"
/>
<path stroke="#9cba8f" vector-effect="non-scaling-stroke" d="
  M 247.55 90.15
  Q 246.62 90.25 246.71 90.65"
/>
<path stroke="#accfac" vector-effect="non-scaling-stroke" d="
  M 246.71 90.65
  L 220.84 105.52"
/>
<path stroke="#edc191" vector-effect="non-scaling-stroke" d="
  M 183.78 127.76
  L 183.82 160.73"
/>
<path stroke="#e3ded6" vector-effect="non-scaling-stroke" d="
  M 284.45 103.50
  L 255.12 120.31
  Q 254.58 120.63 254.58 120.00
  L 254.59 86.25"
/>
<path stroke="#edc191" vector-effect="non-scaling-stroke" d="
  M 185.50 168.71
  Q 184.64 168.84 184.19 169.25
  Q 183.81 169.60 183.81 170.48
  Q 183.70 184.95 183.76 199.92"
/>
<path stroke="#edc191" vector-effect="non-scaling-stroke" d="
  M 183.77 208.11
  L 183.75 241.32
  A 1.42 1.39 64.6 0 1 183.45 242.19
  L 183.18 242.54"
/>
<path stroke="#e68417" vector-effect="non-scaling-stroke" d="
  M 114.22 85.73
  L 113.54 86.63
  A 1.47 1.44 -27.2 0 0 113.25 87.50
  L 113.25 120.00
  Q 113.25 120.69 112.64 120.35
  L 82.95 103.29"
/>
<path stroke="#39a137" vector-effect="non-scaling-stroke" d="
  M 209.79 68.98
  A 0.31 0.31 0.0 0 0 209.79 68.44
  L 183.99 53.52
  A 0.31 0.31 0.0 0 0 183.67 53.52
  L 157.89 68.41
  A 0.31 0.31 0.0 0 0 157.89 68.95
  L 183.68 83.90
  A 0.31 0.31 0.0 0 0 184.00 83.90
  L 209.79 68.98"
/>
<path stroke="#e68417" vector-effect="non-scaling-stroke" d="
  M 146.75 148.42
  A 0.40 0.40 0.0 0 0 146.55 148.07
  L 120.85 133.26
  A 0.40 0.40 0.0 0 0 120.25 133.60
  L 120.25 163.24
  A 0.40 0.40 0.0 0 0 120.45 163.59
  L 146.15 178.41
  A 0.40 0.40 0.0 0 0 146.75 178.07
  L 146.75 148.42"
/>
<path stroke="#e3ded6" vector-effect="non-scaling-stroke" d="
  M 247.44 133.47
  A 0.32 0.32 0.0 0 0 246.96 133.19
  L 220.84 148.17
  A 0.32 0.32 0.0 0 0 220.68 148.45
  L 220.92 178.18
  A 0.32 0.32 0.0 0 0 221.40 178.46
  L 247.37 163.46
  A 0.32 0.32 0.0 0 0 247.53 163.18
  L 247.44 133.47"
/>
</g>
<path fill="#65ab64" d="
  M 213.78 27.79
  L 184.36 44.93
  A 1.04 1.02 44.5 0 1 183.31 44.93
  Q 168.97 36.64 154.46 28.27
  Q 154.19 28.12 154.23 27.48
  L 183.00 10.91
  A 1.54 1.53 44.7 0 1 184.53 10.91
  L 213.78 27.79
  Z"
/>
<path fill="#0d970a" d="
  M 154.23 27.48
  Q 154.19 28.12 154.46 28.27
  Q 168.97 36.64 183.31 44.93
  A 1.04 1.02 44.5 0 0 184.36 44.93
  L 213.78 27.79
  Q 220.88 23.80 220.96 31.91
  L 191.42 48.96
  A 0.38 0.37 -45.3 0 0 191.42 49.61
  L 216.90 64.31
  A 1.04 1.04 0.0 0 0 217.94 64.31
  L 246.47 47.80
  A 1.08 1.07 -9.0 0 0 246.99 47.09
  Q 247.06 46.76 247.26 46.56
  C 251.38 45.72 254.90 44.94 254.37 51.25
  L 225.23 68.15
  A 0.59 0.59 0.0 0 0 225.24 69.17
  Q 238.78 76.95 252.20 84.79
  Q 254.11 85.90 254.15 87.73
  C 253.90 92.83 250.51 91.52 247.55 90.15
  L 217.81 73.09
  A 0.95 0.95 0.0 0 0 216.85 73.09
  L 191.46 87.77
  A 0.36 0.36 0.0 0 0 191.46 88.39
  L 220.84 105.52
  L 220.82 108.69
  Q 218.18 112.36 214.97 110.00
  L 184.28 92.44
  Q 183.82 92.18 183.36 92.44
  L 153.83 109.48
  Q 154.35 104.28 149.91 103.68
  L 176.39 88.25
  A 0.24 0.24 0.0 0 0 176.39 87.84
  L 150.85 73.11
  A 1.12 1.12 0.0 0 0 149.75 73.11
  L 120.36 90.05
  Q 120.89 89.95 120.25 89.74
  Q 120.87 84.91 115.89 84.42
  L 142.66 68.98
  Q 143.16 68.70 142.66 68.41
  Q 128.63 60.23 114.66 52.15
  C 113.79 51.64 113.26 50.76 112.74 49.93
  Q 114.25 43.34 120.18 47.18
  L 149.87 64.33
  Q 150.35 64.61 150.83 64.33
  L 176.15 49.68
  Q 176.66 49.38 176.16 49.08
  L 147.18 31.76
  Q 147.14 30.09 146.46 28.90
  Q 148.97 24.94 152.80 27.45
  Q 153.45 27.87 154.23 27.48
  Z
  M 209.79 68.98
  A 0.31 0.31 0.0 0 0 209.79 68.44
  L 183.99 53.52
  A 0.31 0.31 0.0 0 0 183.67 53.52
  L 157.89 68.41
  A 0.31 0.31 0.0 0 0 157.89 68.95
  L 183.68 83.90
  A 0.31 0.31 0.0 0 0 184.00 83.90
  L 209.79 68.98
  Z"
/>
<path fill="#86b19d" d="
  M 146.46 28.90
  Q 147.14 30.09 147.18 31.76
  Q 146.51 32.20 145.90 32.31
  Q 145.46 30.12 146.46 28.90
  Z"
/>
<path fill="#65ab64" d="
  M 147.18 31.76
  L 176.16 49.08
  Q 176.66 49.38 176.15 49.68
  L 150.83 64.33
  Q 150.35 64.61 149.87 64.33
  L 120.18 47.18
  L 145.90 32.31
  Q 146.51 32.20 147.18 31.76
  Z"
/>
<path fill="#65ab64" d="
  M 220.96 31.91
  Q 233.39 39.13 245.72 46.24
  C 246.26 46.55 246.67 46.51 247.26 46.56
  Q 247.06 46.76 246.99 47.09
  A 1.08 1.07 -9.0 0 1 246.47 47.80
  L 217.94 64.31
  A 1.04 1.04 0.0 0 1 216.90 64.31
  L 191.42 49.61
  A 0.38 0.37 -45.3 0 1 191.42 48.96
  L 220.96 31.91
  Z"
/>
<path fill="#65ab64" d="
  M 112.74 49.93
  C 113.26 50.76 113.79 51.64 114.66 52.15
  Q 128.63 60.23 142.66 68.41
  Q 143.16 68.70 142.66 68.98
  L 115.89 84.42
  L 114.22 85.73
  L 113.74 85.88
  Q 113.26 86.03 112.82 85.78
  Q 93.01 74.21 84.22 69.30
  Q 83.74 69.02 82.99 69.51
  C 83.07 68.87 83.35 68.40 83.94 68.05
  Q 98.12 59.85 112.33 51.67
  Q 112.75 51.42 112.75 50.93
  L 112.74 49.93
  Z"
/>
<path fill="#65ab64" d="
  M 254.37 51.25
  L 284.51 68.67
  L 254.59 86.25
  Q 254.22 86.06 254.15 87.73
  Q 254.11 85.90 252.20 84.79
  Q 238.78 76.95 225.24 69.17
  A 0.59 0.59 0.0 0 1 225.23 68.15
  L 254.37 51.25
  Z"
/>
<path fill="#65ab64" d="
  M 209.79 68.98
  L 184.00 83.90
  A 0.31 0.31 0.0 0 1 183.68 83.90
  L 157.89 68.95
  A 0.31 0.31 0.0 0 1 157.89 68.41
  L 183.67 53.52
  A 0.31 0.31 0.0 0 1 183.99 53.52
  L 209.79 68.44
  A 0.31 0.31 0.0 0 1 209.79 68.98
  Z"
/>
<path fill="#f3f3f3" d="
  M 284.51 68.67
  L 284.45 103.50
  L 255.12 120.31
  Q 254.58 120.63 254.58 120.00
  L 254.59 86.25
  L 284.51 68.67
  Z"
/>
<path fill="#e78f2e" d="
  M 114.22 85.73
  L 113.54 86.63
  A 1.47 1.44 -27.2 0 0 113.25 87.50
  L 113.25 120.00
  Q 113.25 120.69 112.64 120.35
  L 82.95 103.29
  L 82.99 69.51
  Q 83.74 69.02 84.22 69.30
  Q 93.01 74.21 112.82 85.78
  Q 113.26 86.03 113.74 85.88
  L 114.22 85.73
  Z"
/>
<path fill="#65ab64" d="
  M 149.91 103.68
  Q 148.36 104.36 147.40 105.70
  L 120.36 90.05
  L 149.75 73.11
  A 1.12 1.12 0.0 0 1 150.85 73.11
  L 176.39 87.84
  A 0.24 0.24 0.0 0 1 176.39 88.25
  L 149.91 103.68
  Z"
/>
<path fill="#65ab64" d="
  M 247.55 90.15
  Q 246.62 90.25 246.71 90.65
  L 220.84 105.52
  L 191.46 88.39
  A 0.36 0.36 0.0 0 1 191.46 87.77
  L 216.85 73.09
  A 0.95 0.95 0.0 0 1 217.81 73.09
  L 247.55 90.15
  Z"
/>
<path fill="#e57800" d="
  M 115.89 84.42
  Q 120.87 84.91 120.25 89.74
  L 120.25 124.13
  A 0.98 0.97 14.7 0 0 120.75 124.98
  L 146.09 139.64
  Q 146.65 139.97 146.66 139.32
  Q 146.96 123.12 146.64 107.07
  Q 146.62 106.23 147.40 105.70
  Q 148.36 104.36 149.91 103.68
  Q 154.35 104.28 153.83 109.48
  Q 154.30 109.01 153.89 109.58
  L 153.83 143.38
  A 1.33 1.30 15.8 0 0 154.49 144.53
  L 183.93 161.53
  C 187.01 162.97 188.84 165.90 185.53 168.52
  Q 182.94 169.02 181.53 168.22
  Q 168.02 160.50 154.39 152.63
  Q 153.75 152.26 153.75 153.00
  L 153.75 182.03
  A 1.11 1.09 15.3 0 0 154.30 182.98
  L 183.76 199.92
  Q 183.69 199.34 184.14 200.11
  Q 187.82 202.20 187.41 206.08
  L 183.77 208.11
  L 154.50 191.31
  A 0.51 0.51 0.0 0 0 153.74 191.75
  L 153.72 225.51
  C 148.68 229.66 146.55 224.87 145.53 220.82
  Q 146.70 220.70 146.72 218.73
  Q 146.83 203.09 146.71 187.33
  Q 146.71 186.86 146.30 186.62
  L 121.44 172.33
  Q 120.20 171.62 120.20 173.04
  L 120.14 206.12
  C 115.32 210.17 113.03 206.08 112.56 201.79
  Q 112.83 201.76 113.04 201.59
  Q 113.31 201.38 113.31 201.03
  L 113.22 168.43
  A 1.63 1.62 15.0 0 0 112.40 167.02
  Q 97.76 158.62 84.17 150.87
  Q 83.19 150.31 83.03 152.28
  Q 83.27 150.27 82.51 149.76
  Q 76.15 145.44 82.85 141.73
  L 112.46 158.94
  Q 113.25 159.40 113.25 158.48
  L 113.25 129.30
  Q 113.25 128.89 112.89 128.68
  Q 98.32 120.18 83.88 111.85
  Q 83.54 111.65 82.97 111.96
  Q 82.77 111.17 81.74 110.67
  C 77.74 108.73 79.58 104.75 82.95 103.29
  L 112.64 120.35
  Q 113.25 120.69 113.25 120.00
  L 113.25 87.50
  A 1.47 1.44 -27.2 0 1 113.54 86.63
  L 114.22 85.73
  L 115.89 84.42
  Z
  M 146.75 148.42
  A 0.40 0.40 0.0 0 0 146.55 148.07
  L 120.85 133.26
  A 0.40 0.40 0.0 0 0 120.25 133.60
  L 120.25 163.24
  A 0.40 0.40 0.0 0 0 120.45 163.59
  L 146.15 178.41
  A 0.40 0.40 0.0 0 0 146.75 178.07
  L 146.75 148.42
  Z"
/>
<path fill="#d3c8b9" d="
  M 254.59 86.25
  L 254.58 120.00
  Q 254.58 120.63 255.12 120.31
  L 284.45 103.50
  C 287.46 104.75 289.46 107.36 286.69 109.93
  Q 285.55 110.99 284.46 111.64
  L 254.89 128.61
  Q 254.50 128.83 254.50 129.28
  L 254.50 158.75
  Q 254.50 159.36 255.04 159.06
  L 284.45 142.26
  C 289.42 143.98 288.77 148.40 284.46 150.36
  L 254.96 167.27
  A 0.90 0.88 -15.3 0 0 254.51 168.04
  L 254.51 202.24
  Q 254.38 210.41 247.52 206.37
  L 247.50 172.46
  A 0.49 0.49 0.0 0 0 246.77 172.04
  L 222.09 186.20
  A 2.65 2.64 -15.2 0 0 220.76 188.51
  L 220.90 221.90
  Q 220.70 229.69 214.43 225.79
  Q 213.86 225.44 213.01 226.25
  Q 213.04 225.81 213.39 225.46
  Q 213.77 225.09 213.77 224.57
  L 213.85 191.48
  A 0.31 0.31 0.0 0 0 213.38 191.21
  L 187.41 206.08
  Q 187.82 202.20 184.14 200.11
  L 213.42 183.07
  Q 213.77 182.87 213.77 182.46
  L 213.75 152.94
  Q 213.75 152.28 213.18 152.62
  L 185.50 168.71
  Q 185.51 168.61 185.53 168.52
  C 188.84 165.90 187.01 162.97 183.93 161.53
  Q 184.19 160.52 183.82 160.73
  Q 184.27 160.92 184.53 160.95
  Q 184.67 160.97 185.14 160.70
  Q 199.34 152.54 213.54 144.32
  Q 213.98 144.07 213.97 143.55
  Q 213.60 128.28 213.78 113.01
  Q 213.79 112.45 214.07 111.55
  Q 214.56 110.02 213.13 110.05
  L 214.97 110.00
  Q 218.18 112.36 220.82 108.69
  L 220.81 139.68
  A 0.24 0.24 0.0 0 0 221.17 139.88
  L 246.96 124.97
  A 1.09 1.07 75.3 0 0 247.50 124.03
  L 247.50 91.44
  Q 247.50 90.95 247.04 90.77
  L 246.71 90.65
  Q 246.62 90.25 247.55 90.15
  C 250.51 91.52 253.90 92.83 254.15 87.73
  Q 254.22 86.06 254.59 86.25
  Z
  M 247.44 133.47
  A 0.32 0.32 0.0 0 0 246.96 133.19
  L 220.84 148.17
  A 0.32 0.32 0.0 0 0 220.68 148.45
  L 220.92 178.18
  A 0.32 0.32 0.0 0 0 221.40 178.46
  L 247.37 163.46
  A 0.32 0.32 0.0 0 0 247.53 163.18
  L 247.44 133.47
  Z"
/>
<path fill="#e78f2e" d="
  M 120.25 89.74
  Q 120.89 89.95 120.36 90.05
  L 147.40 105.70
  Q 146.62 106.23 146.64 107.07
  Q 146.96 123.12 146.66 139.32
  Q 146.65 139.97 146.09 139.64
  L 120.75 124.98
  A 0.98 0.97 14.7 0 1 120.25 124.13
  L 120.25 89.74
  Z"
/>
<path fill="#f3f3f3" d="
  M 246.71 90.65
  L 247.04 90.77
  Q 247.50 90.95 247.50 91.44
  L 247.50 124.03
  A 1.09 1.07 75.3 0 1 246.96 124.97
  L 221.17 139.88
  A 0.24 0.24 0.0 0 1 220.81 139.68
  L 220.82 108.69
  L 220.84 105.52
  L 246.71 90.65
  Z"
/>
<path fill="#65ab64" d="
  M 214.97 110.00
  L 213.13 110.05
  L 184.53 126.54
  A 1.02 1.02 0.0 0 0 184.04 127.25
  Q 183.98 127.61 183.78 127.76
  L 183.76 127.33
  Q 183.74 126.84 183.31 126.59
  L 153.89 109.58
  Q 154.30 109.01 153.83 109.48
  L 183.36 92.44
  Q 183.82 92.18 184.28 92.44
  L 214.97 110.00
  Z"
/>
<path fill="#e78f2e" d="
  M 153.89 109.58
  L 183.31 126.59
  Q 183.74 126.84 183.76 127.33
  L 183.78 127.76
  L 183.82 160.73
  Q 184.19 160.52 183.93 161.53
  L 154.49 144.53
  A 1.33 1.30 15.8 0 1 153.83 143.38
  L 153.89 109.58
  Z"
/>
<path fill="#f3f3f3" d="
  M 213.13 110.05
  Q 214.56 110.02 214.07 111.55
  Q 213.79 112.45 213.78 113.01
  Q 213.60 128.28 213.97 143.55
  Q 213.98 144.07 213.54 144.32
  Q 199.34 152.54 185.14 160.70
  Q 184.67 160.97 184.53 160.95
  Q 184.27 160.92 183.82 160.73
  L 183.78 127.76
  Q 183.98 127.61 184.04 127.25
  A 1.02 1.02 0.0 0 1 184.53 126.54
  L 213.13 110.05
  Z"
/>
<path fill="#e78f2e" d="
  M 82.85 141.73
  L 82.97 111.96
  Q 83.54 111.65 83.88 111.85
  Q 98.32 120.18 112.89 128.68
  Q 113.25 128.89 113.25 129.30
  L 113.25 158.48
  Q 113.25 159.40 112.46 158.94
  L 82.85 141.73
  Z"
/>
<path fill="#f3f3f3" d="
  M 284.46 111.64
  L 284.45 142.26
  L 255.04 159.06
  Q 254.50 159.36 254.50 158.75
  L 254.50 129.28
  Q 254.50 128.83 254.89 128.61
  L 284.46 111.64
  Z"
/>
<path fill="#e78f2e" d="
  M 146.75 148.42
  L 146.75 178.07
  A 0.40 0.40 0.0 0 1 146.15 178.41
  L 120.45 163.59
  A 0.40 0.40 0.0 0 1 120.25 163.24
  L 120.25 133.60
  A 0.40 0.40 0.0 0 1 120.85 133.26
  L 146.55 148.07
  A 0.40 0.40 0.0 0 1 146.75 148.42
  Z"
/>
<path fill="#f3f3f3" d="
  M 247.44 133.47
  L 247.53 163.18
  A 0.32 0.32 0.0 0 1 247.37 163.46
  L 221.40 178.46
  A 0.32 0.32 0.0 0 1 220.92 178.18
  L 220.68 148.45
  A 0.32 0.32 0.0 0 1 220.84 148.17
  L 246.96 133.19
  A 0.32 0.32 0.0 0 1 247.44 133.47
  Z"
/>
<path fill="#f3f3f3" d="
  M 284.46 150.36
  L 284.47 184.43
  Q 284.47 184.94 284.03 185.19
  L 254.51 202.24
  L 254.51 168.04
  A 0.90 0.88 -15.3 0 1 254.96 167.27
  L 284.46 150.36
  Z"
/>
<path fill="#e78f2e" d="
  M 112.56 201.79
  L 84.11 185.37
  A 2.20 2.18 -75.1 0 1 83.02 183.47
  L 83.03 152.28
  Q 83.19 150.31 84.17 150.87
  Q 97.76 158.62 112.40 167.02
  A 1.63 1.62 15.0 0 1 113.22 168.43
  L 113.31 201.03
  Q 113.31 201.38 113.04 201.59
  Q 112.83 201.76 112.56 201.79
  Z"
/>
<path fill="#e78f2e" d="
  M 185.53 168.52
  Q 185.51 168.61 185.50 168.71
  Q 184.64 168.84 184.19 169.25
  Q 183.81 169.60 183.81 170.48
  Q 183.70 184.95 183.76 199.92
  L 154.30 182.98
  A 1.11 1.09 15.3 0 1 153.75 182.03
  L 153.75 153.00
  Q 153.75 152.26 154.39 152.63
  Q 168.02 160.50 181.53 168.22
  Q 182.94 169.02 185.53 168.52
  Z"
/>
<path fill="#f3f3f3" d="
  M 184.14 200.11
  Q 183.69 199.34 183.76 199.92
  Q 183.70 184.95 183.81 170.48
  Q 183.81 169.60 184.19 169.25
  Q 184.64 168.84 185.50 168.71
  L 213.18 152.62
  Q 213.75 152.28 213.75 152.94
  L 213.77 182.46
  Q 213.77 182.87 213.42 183.07
  L 184.14 200.11
  Z"
/>
<path fill="#e78f2e" d="
  M 145.53 220.82
  L 120.14 206.12
  L 120.20 173.04
  Q 120.20 171.62 121.44 172.33
  L 146.30 186.62
  Q 146.71 186.86 146.71 187.33
  Q 146.83 203.09 146.72 218.73
  Q 146.70 220.70 145.53 220.82
  Z"
/>
<path fill="#f3f3f3" d="
  M 247.52 206.37
  L 220.90 221.90
  L 220.76 188.51
  A 2.65 2.64 -15.2 0 1 222.09 186.20
  L 246.77 172.04
  A 0.49 0.49 0.0 0 1 247.50 172.46
  L 247.52 206.37
  Z"
/>
<path fill="#e78f2e" d="
  M 183.77 208.11
  L 183.75 241.32
  A 1.42 1.39 64.6 0 1 183.45 242.19
  L 183.18 242.54
  L 153.72 225.51
  L 153.74 191.75
  A 0.51 0.51 0.0 0 1 154.50 191.31
  L 183.77 208.11
  Z"
/>
<path fill="#f3f3f3" d="
  M 213.01 226.25
  Q 198.93 234.32 184.89 242.52
  C 184.33 242.85 183.69 242.89 183.18 242.54
  L 183.45 242.19
  A 1.42 1.39 64.6 0 0 183.75 241.32
  L 183.77 208.11
  L 187.41 206.08
  L 213.38 191.21
  A 0.31 0.31 0.0 0 1 213.85 191.48
  L 213.77 224.57
  Q 213.77 225.09 213.39 225.46
  Q 213.04 225.81 213.01 226.25
  Z"
/>
<path fill="#86b19d" d="
  M 44.07 276.28
  C 47.44 279.47 55.03 285.76 56.08 290.22
  C 57.84 297.73 48.24 303.04 42.96 297.80
  Q 35.76 290.65 28.60 283.48
  C 24.22 279.09 22.38 274.74 27.10 269.87
  Q 39.34 257.23 43.23 253.71
  C 48.88 248.62 58.21 254.44 55.97 261.92
  C 54.66 266.29 47.39 272.24 44.06 275.51
  Q 43.66 275.90 44.07 276.28
  Z
  M 38.53 275.39
  Q 44.62 269.16 50.84 263.05
  C 55.02 258.95 49.87 252.76 44.54 258.08
  Q 36.79 265.83 29.51 273.12
  A 3.91 3.91 0.0 0 0 29.51 278.64
  Q 37.15 286.28 45.11 294.22
  C 48.12 297.22 52.95 295.45 52.26 291.37
  C 51.73 288.23 41.20 279.13 38.52 276.26
  Q 38.11 275.82 38.53 275.39
  Z"
/>
<path fill="#86b19d" d="
  M 70.71 254.22
  C 77.12 248.22 87.21 254.92 83.71 262.87
  C 81.93 266.89 75.58 272.03 72.18 275.45
  Q 71.79 275.85 72.18 276.25
  C 75.49 279.70 82.19 285.01 83.79 289.11
  C 86.99 297.26 76.67 303.36 70.48 297.28
  Q 57.76 284.80 54.70 281.54
  C 51.00 277.59 52.02 273.06 55.65 269.31
  Q 65.98 258.64 70.71 254.22
  Z
  M 66.53 275.39
  Q 72.51 269.28 78.60 263.27
  C 83.23 258.71 77.75 252.91 72.71 257.93
  Q 64.85 265.75 57.49 273.15
  A 3.87 3.87 0.0 0 0 57.49 278.61
  Q 65.19 286.34 72.98 294.09
  C 76.23 297.32 81.55 295.08 80.35 291.08
  C 79.33 287.70 69.41 279.37 66.52 276.26
  Q 66.11 275.82 66.53 275.39
  Z"
/>
<path fill="#86b19d" d="
  M 298.43 275.66
  C 295.08 272.19 287.41 265.99 286.30 261.65
  C 284.92 256.29 290.70 250.83 295.94 252.30
  C 300.94 253.70 310.09 264.72 314.07 268.71
  C 318.49 273.16 319.79 277.33 315.17 282.09
  C 311.10 286.28 301.23 298.10 296.13 299.68
  C 290.79 301.33 284.89 295.78 286.30 290.40
  C 287.48 285.93 294.94 279.98 298.42 276.42
  Q 298.80 276.04 298.43 275.66
  Z
  M 296.16 295.39
  C 301.75 290.35 307.82 284.58 312.76 278.84
  C 314.28 277.07 314.58 275.01 312.93 273.32
  Q 309.57 269.87 297.30 257.71
  C 292.92 253.36 287.66 259.32 291.45 263.08
  Q 297.70 269.27 304.01 275.66
  Q 304.39 276.04 304.00 276.42
  Q 297.81 282.53 291.78 288.79
  C 288.27 292.43 290.70 295.92 295.29 295.74
  Q 295.79 295.72 296.16 295.39
  Z"
/>
<path fill="#86b19d" d="
  M 328.31 255.19
  Q 335.07 261.93 341.83 268.69
  C 346.30 273.15 347.84 277.24 343.13 282.12
  Q 335.84 289.69 328.33 297.08
  C 322.34 302.99 312.04 298.46 314.48 289.86
  C 315.61 285.84 323.24 279.64 326.35 276.52
  A 0.63 0.62 -45.7 0 0 326.35 275.64
  C 323.08 272.46 316.52 267.14 314.80 263.14
  C 311.14 254.60 321.62 248.51 328.31 255.19
  Z
  M 331.93 276.40
  Q 326.07 282.40 320.08 288.29
  C 315.20 293.07 321.40 298.22 324.56 295.07
  Q 333.07 286.58 340.88 278.74
  A 3.89 3.89 0.0 0 0 340.87 273.25
  Q 333.49 265.86 325.83 258.20
  C 320.67 253.04 315.92 259.65 318.91 262.58
  Q 325.51 269.02 331.93 275.61
  Q 332.32 276.00 331.93 276.40
  Z"
/>
</svg>
