<svg version="1.2" xmlns="http://www.w3.org/2000/svg" viewBox="0 0 370 320" width="370" height="320"><style>tspan{white-space:pre}.a{fill:none;stroke:#39a137;stroke-width:2}.b{fill:none;stroke:#70b062;stroke-width:2}.c{fill:none;stroke:#80c57f;stroke-width:2}.d{fill:none;stroke:#798805;stroke-width:2}.e{fill:none;stroke:#7a931c;stroke-width:2}.f{fill:none;stroke:#4aa454;stroke-width:2}.g{fill:none;stroke:#e3ded6;stroke-width:2}.h{fill:none;stroke:#ddac74;stroke-width:2}.i{fill:none;stroke:#9cba8f;stroke-width:2}.j{fill:none;stroke:#76ae81;stroke-width:2}.k{fill:none;stroke:#a59232;stroke-width:2}.l{fill:none;stroke:#a69d49;stroke-width:2}.m{fill:none;stroke:#accfac;stroke-width:2}.n{fill:none;stroke:#e68417;stroke-width:2}.o{fill:none;stroke:#dca05d;stroke-width:2}.p{fill:none;stroke:#ecb67a;stroke-width:2}.q{fill:none;stroke:#edc191;stroke-width:2}.r{fill:#42b640}.s{fill:#76d974}.t{fill:#86b19d}.u{fill:#f3f3f3}.v{fill:#e36f1b}.w{fill:#e99d4a}.x{fill:#d2d2d2}.y{font-size: 24px;fill: #186c35;font-weight: 700;font-family: "Costura-Bold", "Costura Rg"}</style><path class="a" d="m213.8 27.8l-29.4 17.1q-0.2 0.1-0.3 0.1-0.1 0.1-0.3 0.1-0.1 0-0.2-0.1-0.2 0-0.3-0.1-14.3-8.3-28.8-16.6-0.3-0.2-0.3-0.8"/><path class="a" d="m221 31.9l-29.6 17.1q-0.1 0-0.1 0.1-0.1 0.1-0.1 0.2 0 0.1 0.1 0.2 0 0.1 0.1 0.1l25.5 14.7q0.1 0.1 0.3 0.1 0.1 0 0.2 0 0.2 0 0.3 0 0.1 0 0.2-0.1l28.6-16.5q0.1-0.1 0.2-0.1 0-0.1 0.1-0.2 0.1-0.1 0.1-0.2 0.1-0.1 0.1-0.2 0.1-0.3 0.3-0.5"/><path class="a" d="m254.4 51.3l-29.2 16.9q-0.1 0-0.2 0.2-0.1 0.1-0.1 0.3 0 0.1 0.1 0.3 0.1 0.1 0.2 0.2 13.6 7.7 27 15.6 1.9 1.1 1.9 2.9"/><path class="b" d="m254.2 87.7c-0.3 5.1-3.7 3.8-6.6 2.5"/><path class="a" d="m247.6 90.2l-29.8-17.1q-0.1-0.1-0.2-0.1-0.1 0-0.3 0-0.1 0-0.2 0-0.1 0-0.2 0.1l-25.4 14.7q-0.1 0-0.2 0.1 0 0.1 0 0.2 0 0.1 0 0.2 0.1 0 0.2 0.1l29.3 17.1"/><path class="c" d="m220.8 105.5v3.2"/><path class="b" d="m220.8 108.7q-2.6 3.7-5.8 1.3"/><path class="a" d="m215 110l-30.7-17.6q-0.5-0.2-0.9 0l-29.6 17.1"/><path class="d" d="m153.8 109.5q0.6-5.2-3.9-5.8"/><path class="a" d="m149.9 103.7l26.5-15.5q0 0 0.1 0 0-0.1 0-0.2 0 0 0-0.1-0.1 0-0.1-0.1l-25.6-14.7q-0.1-0.1-0.2-0.1-0.2 0-0.3 0-0.1 0-0.3 0-0.1 0-0.3 0.1l-29.3 16.9"/><path class="e" d="m120.4 90q0.5-0.1-0.2-0.3"/><path class="d" d="m120.3 89.7q0.6-4.8-4.4-5.3"/><path class="a" d="m115.9 84.4l26.8-15.4q0.5-0.3 0-0.6-14.1-8.2-28-16.3c-0.9-0.5-1.4-1.3-2-2.2"/><path class="a" d="m120.2 47.2l29.7 17.1q0.4 0.3 0.9 0l25.4-14.6q0.5-0.3 0-0.6l-29-17.3"/><path class="f" d="m147.2 31.8q-0.1-1.7-0.7-2.9"/><path class="g" d="m284.5 111.6l-29.6 17q-0.4 0.2-0.4 0.7v29.5q0 0.6 0.5 0.3l29.4-16.8"/><path class="g" d="m284.5 150.4l-29.5 16.9q-0.1 0-0.2 0.1-0.1 0.1-0.2 0.2 0 0.1-0.1 0.2 0 0.1 0 0.2v34.2"/><path class="g" d="m247.5 206.4v-33.9q0-0.2-0.1-0.3 0-0.1-0.1-0.2-0.2 0-0.3 0-0.1 0-0.2 0l-24.7 14.2q-0.3 0.2-0.6 0.4-0.2 0.3-0.4 0.6-0.2 0.3-0.3 0.6 0 0.4 0 0.7l0.1 33.4"/><path class="g" d="m213 226.3q0-0.5 0.4-0.8 0.4-0.4 0.4-0.9v-33.1q0.1-0.1 0-0.2 0-0.1-0.1-0.1-0.1 0-0.2 0 0 0-0.1 0l-26 14.9"/><path class="g" d="m184.1 200.1l29.3-17q0.4-0.2 0.4-0.6v-29.6q0-0.6-0.6-0.3l-27.7 16.1"/><path class="h" d="m185.5 168.7q0-0.1 0-0.2"/><path class="h" d="m183.9 161.5q0.3-1-0.1-0.8"/><path class="g" d="m184.8 159.7q0.5 0.2 0.7 0.3 0.2 0 0.6-0.3 14.2-8.2 28.4-16.4 0.5-0.2 0.5-0.7-0.4-15.3-0.2-30.6 0-0.5 0.3-1.4 0.5-1.6-1-1.5"/><path class="i" d="m213.1 110h1.9"/><path class="g" d="m220.8 108.7v31q0 0 0 0.1 0.1 0.1 0.1 0.1 0.1 0 0.2 0 0 0 0.1 0l25.8-14.9q0.1-0.1 0.2-0.2 0.1-0.1 0.2-0.2 0-0.1 0.1-0.3 0-0.1 0-0.3v-32.6q0-0.4-0.5-0.6l-0.3-0.1"/><path class="j" d="m147.2 31.8q-0.7 0.4-1.3 0.5"/><path class="k" d="m149.9 103.7q-1.5 0.7-2.5 2"/><path class="l" d="m147.4 105.7l-27-15.7"/><path class="m" d="m284.5 68.7l-29.9 17.5"/><path class="i" d="m254.6 86.3q-0.4-0.2-0.4 1.4"/><path class="n" d="m120.3 89.7v34.4q-0.1 0.2 0 0.3 0 0.1 0.1 0.2 0 0.1 0.1 0.2 0.1 0.1 0.3 0.2l25.3 14.6q0.6 0.4 0.6-0.3 0.3-16.2-0.1-32.2 0-0.9 0.8-1.4"/><path class="k" d="m153.8 109.5q0.5-0.5 0.1 0.1"/><path class="n" d="m153.9 109.6l-0.1 33.8q0 0.2 0.1 0.3 0 0.2 0.1 0.3 0.1 0.2 0.2 0.3 0.1 0.1 0.3 0.2l29.4 17"/><path class="o" d="m183.9 161.5c3.1 1.5 4.9 4.4 1.6 7"/><path class="n" d="m185.5 168.5q-2.6 0.5-4-0.3-13.5-7.7-27.1-15.6-0.6-0.3-0.6 0.4v29q-0.1 0.2 0 0.3 0 0.2 0.1 0.3 0.1 0.1 0.2 0.2 0.1 0.1 0.2 0.2l29.5 16.9"/><path class="p" d="m183.8 199.9q-0.1-0.6 0.3 0.2"/><path class="o" d="m184.1 200.1q3.7 2.1 3.3 6"/><path class="p" d="m187.4 206.1l-3.6 2"/><path class="n" d="m183.8 208.1l-29.3-16.8q-0.1-0.1-0.3-0.1-0.1 0-0.2 0.1-0.1 0.1-0.2 0.2-0.1 0.1-0.1 0.3v33.7"/><path class="n" d="m145.5 220.8q1.2-0.1 1.2-2.1 0.1-15.6 0-31.4 0-0.4-0.4-0.7l-24.9-14.3q-1.2-0.7-1.2 0.7l-0.1 33.1"/><path class="n" d="m112.6 201.8q0.2 0 0.4-0.2 0.3-0.2 0.3-0.6l-0.1-32.6q0-0.2 0-0.4-0.1-0.2-0.2-0.4-0.1-0.2-0.3-0.3-0.1-0.2-0.3-0.3-14.6-8.4-28.2-16.1-1-0.6-1.2 1.4"/><path class="n" d="m82.8 141.7l29.7 17.2q0.8 0.5 0.8-0.4v-29.2q0-0.4-0.4-0.6-14.6-8.5-29-16.8-0.4-0.2-0.9 0.1"/><path class="k" d="m115.9 84.4l-1.7 1.3"/><path class="l" d="m114.2 85.7l-0.5 0.2q-0.4 0.1-0.9-0.1-19.8-11.6-28.6-16.5-0.5-0.3-1.2 0.2"/><path class="m" d="m213.1 110l-28.6 16.5q-0.1 0.1-0.1 0.2-0.1 0-0.2 0.1-0.1 0.1-0.1 0.2 0 0.1-0.1 0.3 0 0.3-0.2 0.5"/><path class="l" d="m183.8 127.8v-0.5q-0.1-0.5-0.5-0.7l-29.4-17"/><path class="i" d="m247.6 90.2q-1 0-0.9 0.5"/><path class="m" d="m246.7 90.7l-25.9 14.8"/><path class="q" d="m183.8 127.8v32.9"/><path class="g" d="m284.4 103.5l-29.3 16.8q-0.5 0.3-0.5-0.3v-33.8"/><path class="q" d="m185.5 168.7q-0.9 0.1-1.3 0.6-0.4 0.3-0.4 1.2-0.1 14.4 0 29.4"/><path class="q" d="m183.8 208.1l-0.1 33.2q0 0.1 0 0.3 0 0.1 0 0.2-0.1 0.1-0.1 0.2-0.1 0.1-0.2 0.2l-0.2 0.3"/><path class="n" d="m114.2 85.7l-0.7 0.9q0 0.1-0.1 0.2 0 0.1-0.1 0.2 0 0.2 0 0.3-0.1 0.1-0.1 0.2v32.5q0 0.7-0.6 0.3l-29.6-17"/><path fill-rule="evenodd" class="a" d="m209.8 69q0.1-0.1 0.1-0.1 0-0.1 0-0.2 0-0.1 0-0.1 0-0.1-0.1-0.2l-25.8-14.9q0 0-0.1 0 0 0-0.1 0 0 0-0.1 0 0 0 0 0l-25.8 14.9q-0.1 0.1-0.1 0.1-0.1 0.1-0.1 0.2 0 0.1 0.1 0.1 0 0.1 0.1 0.2l25.8 14.9q0 0 0.1 0 0 0 0 0 0.1 0 0.1 0 0.1 0 0.1 0z"/><path fill-rule="evenodd" class="n" d="m146.8 148.4q0 0-0.1-0.1 0 0 0-0.1 0 0-0.1-0.1 0 0 0 0l-25.8-14.8q0-0.1-0.1-0.1-0.2 0-0.2 0.1-0.1 0-0.2 0.1 0 0.1-0.1 0.2v29.6q0 0.1 0.1 0.1 0 0.1 0 0.1 0 0.1 0.1 0.1 0 0.1 0 0.1l25.7 14.8q0.1 0.1 0.2 0.1 0.2 0 0.2-0.1 0.1 0 0.2-0.1 0-0.1 0-0.2z"/><path fill-rule="evenodd" class="g" d="m247.4 133.5q0-0.1 0-0.2 0-0.1-0.1-0.1-0.1-0.1-0.2-0.1-0.1 0-0.1 0.1l-26.2 15q0 0 0 0-0.1 0.1-0.1 0.1 0 0 0 0.1 0 0 0 0l0.2 29.8q0 0.1 0.1 0.1 0 0.1 0.1 0.2 0.1 0 0.1 0 0.1 0 0.2 0l26-15q0-0.1 0-0.1 0.1 0 0.1-0.1 0 0 0 0 0-0.1 0-0.1z"/><path class="r" d="m214.8 27.8l-29.4 17.1q-0.2 0.1-0.3 0.1-0.1 0.1-0.3 0.1-0.1 0-0.2-0.1-0.2 0-0.3-0.1-14.3-8.3-28.8-16.6-0.3-0.2-0.3-0.8l28.8-16.6q0.2-0.1 0.4-0.1 0.2-0.1 0.4-0.1 0.2 0 0.4 0.1 0.2 0 0.3 0.1z"/><path fill-rule="evenodd" class="s" d="m154.2 27.5q0 0.6 0.3 0.8 14.5 8.3 28.8 16.6 0.1 0.1 0.3 0.1 0.1 0.1 0.2 0.1 0.2 0 0.3-0.1 0.1 0 0.3-0.1l29.4-17.1q7.1-4 7.2 4.1l-29.6 17.1q-0.1 0-0.1 0.1-0.1 0.1-0.1 0.2 0 0.1 0.1 0.2 0 0.1 0.1 0.1l25.5 14.7q0.1 0.1 0.3 0.1 0.1 0 0.2 0 0.2 0 0.3 0 0.1 0 0.2-0.1l28.6-16.5q0.1-0.1 0.2-0.1 0-0.1 0.1-0.2 0.1-0.1 0.1-0.2 0.1-0.1 0.1-0.2 0.1-0.3 0.3-0.5c4.1-0.9 7.6-1.7 7.1 4.6l-29.2 17q-0.1 0-0.2 0.2-0.1 0.1-0.1 0.3 0 0.1 0.1 0.3 0.1 0.1 0.2 0.2 13.6 7.7 27 15.6 1.9 1.1 2 2.9c-0.3 5.1-3.7 3.8-6.6 2.5l-29.8-17.1q-0.1-0.1-0.2-0.1-0.1 0-0.3 0-0.1 0-0.2 0-0.1 0-0.2 0.1l-25.4 14.7q-0.1 0-0.2 0.1 0 0.1 0 0.2 0 0.1 0 0.2 0.1 0 0.2 0.1l29.3 17.1v3.2q-2.6 3.7-5.8 1.3l-30.7-17.6q-0.5-0.2-0.9 0l-29.6 17.1q0.6-5.2-3.9-5.8l26.5-15.4q0-0.1 0.1-0.1 0-0.1 0-0.2 0 0 0-0.1-0.1 0-0.1-0.1l-25.5-14.7q-0.2-0.1-0.3-0.1-0.2 0-0.3 0-0.1 0-0.3 0-0.1 0-0.2 0.1l-29.2 16.8q0-0.1-0.3-0.2 0.6-4.8-4.4-5.3l26.8-15.4q0.5-0.3 0-0.6-14.1-8.2-28-16.3c-0.9-0.5-1.4-1.3-2-2.2q1.6-6.6 7.5-2.7l29.7 17.1q0.4 0.3 0.9 0l25.4-14.6q0.5-0.3 0-0.6l-29-17.3q-0.1-1.7-0.7-2.9 2.5-4 6.3-1.5 0.7 0.5 1.4 0.1zm-33.6 62.4q0 0.1-0.2 0.1zm89.2-20.9q0 0 0.1-0.1 0-0.1 0-0.2 0 0 0-0.1-0.1-0.1-0.1-0.1l-25.8-14.9q-0.1-0.1-0.1-0.1-0.1 0-0.1 0 0 0-0.1 0 0 0-0.1 0.1l-25.7 14.8q-0.1 0.1-0.2 0.2 0 0 0 0.1 0 0.1 0 0.2 0.1 0 0.2 0.1l25.7 14.9q0.1 0.1 0.1 0.1 0.1 0 0.1 0 0 0 0.1 0 0 0 0.1-0.1z"/><path class="t" d="m146.5 28.9q0.6 1.2 0.7 2.9-0.7 0.4-1.3 0.5-0.4-2.2 0.6-3.4z"/><path class="r" d="m147.2 31.8l29 17.3q0.5 0.3 0 0.6l-25.4 14.6q-0.5 0.3-0.9 0l-29.7-17.1 25.7-14.9q0.6-0.1 1.3-0.5z"/><path class="r" d="m221 31.9q12.4 7.2 24.7 14.3c0.6 0.3 1 0.3 1.6 0.4q-0.2 0.2-0.3 0.5 0 0.1-0.1 0.2 0 0.1-0.1 0.2-0.1 0.1-0.1 0.2-0.1 0-0.2 0.1l-28.6 16.5q-0.1 0.1-0.2 0.1-0.1 0-0.3 0-0.1 0-0.2 0-0.2 0-0.3-0.1l-25.5-14.7q-0.1 0-0.1-0.1-0.1-0.1-0.1-0.2 0-0.1 0.1-0.2 0-0.1 0.1-0.1z"/><path class="r" d="m112.7 49.9c0.6 0.9 1.1 1.7 2 2.3q13.9 8 28 16.2 0.5 0.3 0 0.6l-26.8 15.4-1.7 1.3-0.5 0.2q-0.4 0.1-0.9-0.1-19.8-11.6-28.6-16.5-0.5-0.3-1.2 0.2c0.1-0.6 0.3-1.1 0.9-1.5q14.2-8.1 28.4-16.3 0.5-0.3 0.5-0.8z"/><path class="r" d="m254.4 51.3l30.1 17.4-29.9 17.6q-0.4-0.2-0.5 1.4 0-1.8-1.9-2.9-13.4-7.9-27-15.6-0.1-0.1-0.2-0.2-0.1-0.2-0.1-0.3 0-0.2 0.1-0.3 0.1-0.2 0.2-0.3z"/><path class="r" d="m209.8 69l-25.8 14.9q0 0-0.1 0 0 0-0.1 0 0 0 0 0-0.1 0-0.1 0l-25.8-14.9q-0.1-0.1-0.1-0.2-0.1 0-0.1-0.1 0-0.1 0.1-0.2 0 0 0.1-0.1l25.8-14.9q0 0 0 0 0.1 0 0.1 0 0.1 0 0.1 0 0.1 0 0.1 0l25.8 14.9q0.1 0.1 0.1 0.2 0 0 0 0.1 0 0.1 0 0.2 0 0-0.1 0.1z"/><path class="u" d="m284.5 68.7l-0.1 34.8-29.3 16.8q-0.5 0.3-0.5-0.3v-33.8z"/><path class="v" d="m114.2 85.7l-0.7 0.9q0 0.1-0.1 0.2 0 0.1-0.1 0.2 0 0.2 0 0.3-0.1 0.1-0.1 0.2v32.5q0 0.7-0.6 0.3l-29.6-17v-33.8q0.7-0.5 1.2-0.2 8.8 4.9 28.6 16.5 0.5 0.2 0.9 0.1z"/><path class="r" d="m149.9 103.7q-1.5 0.7-2.5 2l-27-15.7 29.3-16.9q0.2-0.1 0.3-0.1 0.2 0 0.3 0 0.1 0 0.3 0 0.1 0 0.3 0.1l25.5 14.7q0 0.1 0.1 0.1 0 0.1 0 0.1 0 0.1 0 0.2-0.1 0-0.1 0z"/><path class="r" d="m247.6 90.2q-1 0-0.9 0.5l-25.9 14.8-29.3-17.1q-0.1-0.1-0.2-0.1 0-0.1 0-0.2 0-0.1 0-0.2 0.1-0.1 0.2-0.1l25.3-14.7q0.2-0.1 0.3-0.1 0.1 0 0.2 0 0.2 0 0.3 0 0.1 0 0.2 0.1z"/><path fill-rule="evenodd" class="w" d="m115.9 84.4q5 0.5 4.3 5.3v34.4q0 0.2 0.1 0.3 0 0.1 0.1 0.2 0 0.1 0.1 0.2 0.1 0.1 0.3 0.2l25.3 14.6q0.5 0.4 0.6-0.3 0.3-16.2-0.1-32.2 0-0.9 0.8-1.4 1-1.3 2.5-2 4.5 0.6 3.9 5.8 0.5-0.5 0.1 0.1l-0.1 33.8q0 0.2 0.1 0.3 0 0.2 0.1 0.3 0.1 0.2 0.2 0.3 0.1 0.1 0.3 0.2l29.4 17c3.1 1.5 4.9 4.4 1.6 7q-2.6 0.5-4-0.3-13.5-7.7-27.1-15.6-0.7-0.3-0.7 0.4v29q0 0.2 0.1 0.3 0 0.2 0.1 0.3 0.1 0.1 0.2 0.2 0.1 0.1 0.2 0.2l29.5 16.9q-0.1-0.6 0.3 0.2 3.7 2.1 3.3 6l-3.6 2-29.3-16.8q-0.1-0.1-0.3-0.1-0.1 0-0.2 0.1-0.1 0.1-0.2 0.2-0.1 0.1-0.1 0.3v33.7c-5 4.2-7.1-0.6-8.2-4.7q1.2-0.1 1.2-2.1 0.1-15.6 0-31.4 0-0.4-0.4-0.7l-24.9-14.3q-1.2-0.7-1.2 0.7l-0.1 33.1c-4.8 4.1-7.1 0-7.5-4.3q0.2 0 0.4-0.2 0.3-0.2 0.3-0.6l-0.1-32.6q0-0.2 0-0.4-0.1-0.2-0.2-0.4-0.1-0.2-0.3-0.3-0.1-0.2-0.3-0.3-14.6-8.4-28.2-16.1-0.9-0.5-1.1 1.1 0.1-1.8-0.6-2.2-6.3-4.4 0.3-8.1l29.7 17.2q0.7 0.5 0.7-0.4v-29.2q0-0.4-0.3-0.6-14.6-8.5-29-16.9-0.4-0.1-0.9 0.2-0.2-0.8-1.3-1.3c-4-2-2.1-6 1.2-7.4l29.7 17q0.6 0.4 0.6-0.3v-32.5q0-0.1 0.1-0.2 0-0.1 0-0.3 0.1-0.1 0.1-0.2 0.1-0.1 0.1-0.2l0.7-0.9zm-32.8 67.6q0 0.1 0 0.3 0-0.2 0-0.3zm63.7-3.6q0 0 0-0.1 0 0-0.1-0.1 0 0 0-0.1-0.1 0-0.1 0l-25.7-14.8q-0.1-0.1-0.2-0.1-0.1 0-0.2 0.1-0.1 0-0.2 0.1 0 0.1 0 0.2v29.7q0 0 0 0.1 0 0 0 0.1 0.1 0 0.1 0 0 0.1 0.1 0.1l25.7 14.8q0.1 0.1 0.2 0.1 0.1 0 0.2-0.1 0.1 0 0.1-0.1 0.1-0.1 0.1-0.2z"/><path fill-rule="evenodd" class="x" d="m255.6 86.3v33.7q0 0.6 0.5 0.3l29.3-16.8c3.1 1.3 5.1 3.9 2.3 6.4q-1.2 1.1-2.2 1.7l-29.6 17q-0.4 0.2-0.4 0.7v29.4q0 0.7 0.5 0.4l29.4-16.8c5 1.7 4.4 6.1 0.1 8.1l-29.5 16.9q-0.1 0-0.2 0.1-0.1 0.1-0.2 0.2 0 0.1-0.1 0.2 0 0.1 0 0.2v34.2q-0.1 8.2-7 4.2v-33.9q0-0.2-0.1-0.3 0-0.1-0.1-0.2-0.2 0-0.3 0-0.1 0-0.2 0l-24.7 14.2q-0.3 0.2-0.6 0.4-0.2 0.3-0.4 0.6-0.2 0.3-0.3 0.6 0 0.4 0 0.7l0.1 33.4q-0.2 7.8-6.5 3.9-0.5-0.4-1.4 0.5 0-0.5 0.4-0.8 0.4-0.4 0.4-0.9l0.1-33.1q0-0.1-0.1-0.2 0-0.1-0.1-0.1-0.1 0-0.2 0 0 0-0.1 0l-26 14.9q0.4-3.9-3.3-6l29.3-17q0.4-0.2 0.4-0.6v-29.6q0-0.6-0.6-0.3l-27.7 16.1q0-0.1 0-0.2c3.3-2.6 1.5-5.5-1.6-7q0.2-0.5 0.1-0.7 0.3 0.1 0.5 0.1 0.2 0.1 0.6-0.2 14.2-8.2 28.4-16.4 0.5-0.2 0.5-0.7-0.4-15.3-0.2-30.6 0-0.5 0.3-1.4 0.5-1.6-1-1.5l1.9-0.1q3.2 2.4 5.8-1.3v31q0 0 0 0.1 0.1 0.1 0.1 0.1 0.1 0 0.2 0 0 0 0.1 0l25.8-14.9q0.1-0.1 0.2-0.2 0.1-0.1 0.2-0.2 0-0.1 0.1-0.3 0-0.1 0-0.3v-32.6q0-0.4-0.5-0.6l-0.3-0.1q-0.1-0.4 0.9-0.5c2.9 1.3 6.3 2.6 6.6-2.5q0-1.6 0.4-1.4zm-70.6 74.5q-0.1 0-0.2-0.1 0.2-0.1 0.2 0.1zm63.4-27.3q0-0.1 0-0.2 0-0.1-0.1-0.1-0.1-0.1-0.2-0.1-0.1 0-0.1 0.1l-26.2 15q0 0 0 0-0.1 0.1-0.1 0.1 0 0 0 0.1 0 0 0 0l0.2 29.8q0 0.1 0.1 0.1 0 0.1 0.1 0.2 0.1 0 0.1 0 0.1 0 0.2 0l26-15q0-0.1 0-0.1 0.1 0 0.1-0.1 0 0 0 0 0-0.1 0-0.1z"/><path class="v" d="m120.3 89.7q0.6 0.2 0.1 0.3l27 15.7q-0.8 0.5-0.8 1.4 0.4 16 0.1 32.2 0 0.7-0.6 0.3l-25.3-14.6q-0.2-0.1-0.3-0.2-0.1-0.1-0.1-0.2-0.1-0.1-0.1-0.2-0.1-0.1 0-0.3z"/><path class="u" d="m246.7 90.7l0.3 0.1q0.5 0.1 0.5 0.6v32.6q0 0.2 0 0.3-0.1 0.2-0.1 0.3-0.1 0.1-0.2 0.2-0.1 0.1-0.2 0.2l-25.8 14.9q-0.1 0-0.1 0-0.1 0-0.2 0 0 0-0.1-0.1 0-0.1 0-0.1v-31-3.2z"/><path class="r" d="m215 110h-1.9l-28.6 16.5q-0.1 0.1-0.1 0.2-0.1 0-0.2 0.1-0.1 0.1-0.1 0.2 0 0.1-0.1 0.3 0 0.3-0.2 0.5v-0.5q-0.1-0.5-0.5-0.7l-29.4-17q0.4-0.6-0.1-0.1l29.6-17.1q0.4-0.2 0.9 0z"/><path class="v" d="m153.9 109.6l29.4 17q0.4 0.2 0.5 0.7v0.5 32.9q0.4-0.2 0.1 0.8l-29.4-17q-0.2-0.1-0.3-0.2-0.1-0.1-0.2-0.3-0.1-0.1-0.1-0.3-0.1-0.1-0.1-0.3z"/><path class="u" d="m214.1 109q1.5 0 1 1.5-0.3 1-0.3 1.5-0.2 15.3 0.2 30.6 0 0.5-0.5 0.7-14.2 8.2-28.4 16.4-0.4 0.3-0.6 0.2-0.2 0-0.7-0.2v-32.9q0.2-0.2 0.2-0.6 0.1-0.1 0.1-0.2 0-0.1 0.1-0.2 0.1-0.1 0.2-0.1 0-0.1 0.1-0.2z"/><path class="v" d="m82.8 141.7l0.2-29.7q0.5-0.3 0.9-0.1 14.4 8.3 29 16.8 0.4 0.2 0.4 0.6v29.2q0 0.9-0.8 0.4z"/><path class="u" d="m284.5 111.6l-0.1 30.7-29.4 16.8q-0.5 0.3-0.5-0.3v-29.5q0-0.5 0.4-0.7z"/><path class="v" d="m146.8 148.4l-0.1 29.7q0 0.1 0 0.2-0.1 0.1-0.2 0.1 0 0.1-0.2 0.1-0.1 0-0.2-0.1l-25.7-14.8q0 0 0-0.1-0.1 0-0.1-0.1 0 0 0-0.1-0.1 0-0.1-0.1v-29.6q0.1-0.1 0.1-0.2 0.1-0.1 0.2-0.1 0-0.1 0.2-0.1 0.1 0 0.1 0.1l25.8 14.8q0 0 0 0 0.1 0.1 0.1 0.1 0 0.1 0 0.1 0.1 0.1 0 0.1z"/><path class="u" d="m247.4 133.5l0.1 29.7q0 0 0 0.1 0 0 0 0 0 0.1-0.1 0.1 0 0 0 0.1l-26 15q-0.1 0-0.2 0 0 0-0.1 0-0.1-0.1-0.1-0.2-0.1 0-0.1-0.1l-0.2-29.8q0 0 0 0 0-0.1 0-0.1 0 0 0.1-0.1 0 0 0 0l26.2-15q0-0.1 0.1-0.1 0.1 0 0.2 0.1 0.1 0 0.1 0.1 0 0.1 0 0.2z"/><path class="u" d="m284.5 150.4v34q0 0.5-0.5 0.8l-29.5 17v-34.2q0-0.1 0-0.2 0.1-0.1 0.1-0.2 0.1-0.1 0.2-0.2 0.1-0.1 0.2-0.1z"/><path class="v" d="m112.6 201.8l-28.5-16.4q-0.2-0.2-0.4-0.4-0.2-0.2-0.4-0.4-0.1-0.3-0.2-0.6-0.1-0.2-0.1-0.5v-31.2q0.2-2 1.2-1.4 13.6 7.7 28.2 16.1 0.2 0.1 0.3 0.3 0.2 0.1 0.3 0.3 0.1 0.2 0.2 0.4 0 0.2 0 0.4l0.1 32.6q0 0.4-0.3 0.6-0.2 0.2-0.4 0.2z"/><path class="v" d="m185.5 168.5q0 0.1 0 0.2-0.9 0.1-1.3 0.6-0.4 0.3-0.4 1.2-0.1 14.4 0 29.4l-29.5-16.9q-0.1-0.1-0.2-0.2-0.1-0.1-0.2-0.2-0.1-0.1-0.1-0.3-0.1-0.1 0-0.3v-29q0-0.7 0.6-0.4 13.6 7.9 27.1 15.6 1.4 0.8 4 0.3z"/><path class="u" d="m184.1 200.1q-0.4-0.8-0.3-0.2-0.1-15 0-29.4 0-0.9 0.4-1.2 0.4-0.5 1.3-0.6l27.7-16.1q0.6-0.3 0.6 0.3v29.6q0 0.4-0.4 0.6z"/><path class="v" d="m145.5 220.8l-25.4-14.7 0.1-33.1q0-1.4 1.2-0.7l24.9 14.3q0.4 0.3 0.4 0.7 0.1 15.8 0 31.4 0 2-1.2 2.1z"/><path class="u" d="m247.5 206.4l-26.6 15.5-0.1-33.4q0-0.3 0-0.7 0.1-0.3 0.3-0.6 0.2-0.3 0.4-0.6 0.3-0.2 0.6-0.4l24.7-14.2q0.1 0 0.2 0 0.1 0 0.3 0 0.1 0.1 0.1 0.2 0.1 0.1 0.1 0.3z"/><path class="v" d="m183.8 208.1l-0.1 33.2q0 0.1 0 0.3 0 0.1 0 0.2-0.1 0.1-0.1 0.2-0.1 0.1-0.2 0.2l-0.2 0.3-29.5-17v-33.8q0-0.1 0.1-0.2 0.1-0.1 0.2-0.2 0.1-0.1 0.2-0.1 0.2 0 0.3 0.1z"/><path class="u" d="m213 226.3q-14.1 8-28.1 16.2c-0.6 0.3-1.2 0.4-1.7 0l0.2-0.3q0.1-0.1 0.2-0.2 0-0.1 0.1-0.2 0-0.1 0-0.2 0-0.2 0.1-0.3v-33.2l3.6-2 26-14.9q0.1 0 0.1 0 0.1 0 0.2 0 0.1 0 0.1 0.1 0.1 0.1 0 0.2v33.1q0 0.5-0.4 0.9-0.4 0.3-0.4 0.7z"/><path fill-rule="evenodd" class="t" d="m44.1 276.3c3.3 3.2 10.9 9.5 12 13.9 1.7 7.5-7.9 12.8-13.1 7.6q-7.2-7.2-14.4-14.3c-4.4-4.4-6.2-8.8-1.5-13.6q12.2-12.7 16.1-16.2c5.7-5.1 15 0.7 12.8 8.2-1.3 4.4-8.6 10.3-11.9 13.6q-0.4 0.4 0 0.8zm-5.6-0.9q6.1-6.2 12.3-12.3c4.2-4.2-0.9-10.3-6.3-5q-7.7 7.7-15 15-0.5 0.6-0.8 1.3-0.3 0.7-0.3 1.5 0 0.8 0.3 1.5 0.3 0.7 0.8 1.2 7.6 7.7 15.6 15.6c3 3 7.8 1.2 7.2-2.8-0.6-3.2-11.1-12.3-13.8-15.1q-0.4-0.5 0-0.9z"/><path fill-rule="evenodd" class="t" d="m70.7 254.2c6.4-6 16.5 0.7 13 8.7-1.8 4-8.1 9.1-11.5 12.6q-0.4 0.4 0 0.8c3.3 3.4 10 8.7 11.6 12.8 3.2 8.2-7.1 14.3-13.3 8.2q-12.7-12.5-15.8-15.8c-3.7-3.9-2.7-8.4 0.9-12.2q10.4-10.7 15.1-15.1zm-4.2 21.2q6-6.1 12.1-12.1c4.6-4.6-0.9-10.4-5.9-5.4q-7.9 7.9-15.2 15.2-0.6 0.6-0.8 1.3-0.3 0.7-0.3 1.5 0 0.7 0.3 1.5 0.2 0.7 0.8 1.2 7.7 7.7 15.5 15.5c3.2 3.2 8.5 1 7.3-3-1-3.4-10.9-11.7-13.8-14.8q-0.4-0.5 0-0.9z"/><path fill-rule="evenodd" class="t" d="m298.4 275.7c-3.3-3.5-11-9.7-12.1-14.1-1.4-5.3 4.4-10.8 9.6-9.3 5 1.4 14.2 12.4 18.2 16.4 4.4 4.5 5.7 8.6 1.1 13.4-4.1 4.2-14 16-19.1 17.6-5.3 1.6-11.2-3.9-9.8-9.3 1.2-4.5 8.6-10.4 12.1-14q0.4-0.4 0-0.7zm-2.2 19.7c5.6-5 11.6-10.8 16.6-16.6 1.5-1.7 1.8-3.8 0.1-5.5q-3.3-3.4-15.6-15.6c-4.4-4.3-9.6 1.6-5.8 5.4q6.2 6.2 12.5 12.6 0.4 0.3 0 0.7-6.2 6.1-12.2 12.4c-3.5 3.6-1.1 7.1 3.5 6.9q0.5 0 0.9-0.3z"/><path fill-rule="evenodd" class="t" d="m328.3 255.2q6.8 6.7 13.5 13.5c4.5 4.4 6 8.5 1.3 13.4q-7.3 7.6-14.8 15c-6 5.9-16.3 1.4-13.8-7.2 1.1-4.1 8.7-10.3 11.9-13.4q0-0.1 0.1-0.2 0-0.1 0-0.2 0-0.1 0-0.3-0.1-0.1-0.1-0.2c-3.3-3.1-9.9-8.5-11.6-12.5-3.7-8.5 6.8-14.6 13.5-7.9zm3.6 21.2q-5.8 6-11.8 11.9c-4.9 4.8 1.3 9.9 4.5 6.8q8.5-8.5 16.3-16.4 0.5-0.5 0.8-1.2 0.3-0.7 0.3-1.5 0-0.8-0.3-1.5-0.3-0.7-0.8-1.2-7.4-7.4-15.1-15.1c-5.1-5.2-9.9 1.4-6.9 4.4q6.6 6.4 13 13 0.4 0.4 0 0.8z"/><text style="transform:matrix(1,0,0,1,112,121)" ></text><text style="transform:matrix(1,0,0,1,162,58)" ><tspan x="13.8" y="19.3" class="y">A</tspan><tspan  y="19.3" class="y">
</tspan></text></svg>